<?xml version="1.0" encoding="utf-8"?>
<!-- Generator: Adobe Illustrator 19.0.0, SVG Export Plug-In . SVG Version: 6.00 Build 0)  -->
<svg version="1.0" xmlns="http://www.w3.org/2000/svg" xmlns:xlink="http://www.w3.org/1999/xlink" x="0px" y="0px"
	 viewBox="0 0 800 800" style="enable-background:new 0 0 800 800;" xml:space="preserve">
<style type="text/css">
	.st0{fill:#FFFFFF;}
</style>
<g id="Background">
</g>
<g id="Objects">
	<g>
		<path class="st0" d="M375.8,201.2c-6.2,0-11.3,5.1-11.3,11.3s5.1,11.3,11.3,11.3c6.2,0,11.3-5.1,11.3-11.3
			S382.1,201.2,375.8,201.2 M375.8,217.5c-2.8,0-5-2.3-5-5c0-2.8,2.3-5,5-5c2.8,0,5,2.3,5,5C380.8,215.3,378.6,217.5,375.8,217.5"/>
		<path class="st0" d="M410.2,214.6l6.9-2.3l-0.4-5.3l-7.2-1.3c-0.3-1.4-0.7-2.9-1.2-4.3l5.6-4.8l-2.3-4.8l-7.2,1.5
			c-0.9-1.4-1.9-2.7-3-3.9l3.2-6.5l-4-3.5l-6,4.1c-1.2-0.8-2.5-1.6-3.9-2.2l0.5-7.3l-5-1.7l-4,6.1c-1.6-0.3-3.2-0.5-4.9-0.6
			l-2.3-6.9l-5.3,0.4l-1.3,7.2c-1.4,0.3-2.9,0.7-4.3,1.2l-4.8-5.6l-4.8,2.3l1.5,7.2c-1.4,0.9-2.7,1.9-3.9,3l-6.5-3.2l-3.5,4l4.1,6
			c-0.8,1.2-1.6,2.5-2.2,3.9l-7.3-0.5l-1.7,5l6.1,4c-0.3,1.6-0.5,3.2-0.6,4.9l-6.9,2.3l0.4,5.3l7.2,1.3c0.3,1.4,0.7,2.9,1.2,4.3
			l-5.6,4.8l2.3,4.8l7.2-1.5c0.9,1.4,1.9,2.7,3,3.9l-3.2,6.5l4,3.5l6-4.1c1.2,0.8,2.5,1.6,3.9,2.2l-0.5,7.3l5,1.7l4-6.1
			c1.6,0.3,3.2,0.5,4.9,0.6l2.3,6.9l5.3-0.4l1.3-7.2c1.4-0.3,2.9-0.7,4.3-1.2l4.8,5.6l4.8-2.3l-1.5-7.2c1.4-0.9,2.7-1.9,3.9-3
			l6.5,3.2l3.5-4l-4.1-6c0.8-1.2,1.6-2.5,2.2-3.9l7.3,0.5l1.7-5l-6.1-4C409.9,217.8,410.1,216.2,410.2,214.6 M375.4,239.3
			c-14.8,0-26.8-12-26.8-26.8c0-14.8,12-26.8,26.8-26.8c14.8,0,26.8,12,26.8,26.8C402.2,227.3,390.2,239.3,375.4,239.3"/>
	</g>
	<g>
		<path class="st0" d="M492.8,254.5c-2.9,0-5.3,2.4-5.3,5.4c0,2.9,2.4,5.3,5.3,5.3c3,0,5.3-2.4,5.3-5.3
			C498.1,256.9,495.7,254.5,492.8,254.5 M492.8,262.2c-1.3,0-2.4-1.1-2.4-2.4c0-1.3,1.1-2.4,2.4-2.4c1.3,0,2.4,1.1,2.4,2.4
			C495.2,261.2,494.1,262.2,492.8,262.2"/>
		<path class="st0" d="M509,260.8l3.3-1.1l-0.2-2.5l-3.4-0.6c-0.1-0.7-0.3-1.4-0.5-2l2.6-2.3l-1.1-2.2l-3.4,0.7
			c-0.4-0.7-0.9-1.3-1.4-1.8l1.5-3.1l-1.9-1.6l-2.8,1.9c-0.6-0.4-1.2-0.7-1.8-1l0.3-3.4l-2.4-0.8l-1.9,2.9c-0.8-0.2-1.5-0.3-2.3-0.3
			l-1.1-3.3l-2.5,0.2l-0.6,3.4c-0.7,0.1-1.4,0.3-2,0.5l-2.3-2.6l-2.3,1.1l0.7,3.4c-0.7,0.4-1.3,0.9-1.8,1.4l-3.1-1.5l-1.6,1.9
			l1.9,2.8c-0.4,0.6-0.7,1.2-1,1.8l-3.4-0.3l-0.8,2.4l2.9,1.9c-0.2,0.8-0.3,1.5-0.3,2.3l-3.3,1.1l0.2,2.5l3.4,0.6
			c0.1,0.7,0.3,1.4,0.5,2l-2.6,2.3l1.1,2.2l3.4-0.7c0.4,0.7,0.9,1.3,1.4,1.8l-1.5,3.1l1.9,1.6l2.8-1.9c0.6,0.4,1.2,0.7,1.8,1
			L485,278l2.4,0.8l1.9-2.9c0.8,0.2,1.5,0.3,2.3,0.3l1.1,3.3l2.5-0.2l0.6-3.4c0.7-0.1,1.4-0.3,2-0.5l2.3,2.6l2.3-1.1l-0.7-3.4
			c0.7-0.4,1.3-0.9,1.8-1.4l3.1,1.5l1.6-1.9l-1.9-2.8c0.4-0.6,0.7-1.2,1-1.8l3.4,0.3l0.8-2.4l-2.9-1.9
			C508.9,262.4,509,261.6,509,260.8 M492.6,272.5c-7,0-12.7-5.7-12.7-12.7s5.7-12.7,12.7-12.7c7,0,12.7,5.7,12.7,12.7
			S499.6,272.5,492.6,272.5"/>
	</g>
	<g>
		<path class="st0" d="M341.9,268.8c-3.7,0-6.8,3-6.8,6.8c0,3.7,3,6.8,6.8,6.8c3.7,0,6.8-3,6.8-6.8
			C348.7,271.8,345.7,268.8,341.9,268.8 M341.9,278.6c-1.7,0-3-1.3-3-3c0-1.7,1.3-3,3-3c1.7,0,3,1.3,3,3
			C344.9,277.2,343.6,278.6,341.9,278.6"/>
		<path class="st0" d="M362.5,276.8l4.1-1.4l-0.2-3.2l-4.3-0.8c-0.2-0.9-0.4-1.7-0.7-2.6l3.4-2.9l-1.4-2.8l-4.3,0.9
			c-0.5-0.8-1.1-1.6-1.8-2.3l1.9-3.9l-2.4-2.1l-3.6,2.5c-0.7-0.5-1.5-0.9-2.3-1.3l0.3-4.4l-3-1l-2.4,3.6c-1-0.2-1.9-0.3-2.9-0.4
			l-1.4-4.1l-3.2,0.2l-0.8,4.3c-0.9,0.2-1.7,0.4-2.6,0.7l-2.9-3.4l-2.8,1.4l0.9,4.3c-0.8,0.5-1.6,1.1-2.3,1.8l-3.9-1.9l-2.1,2.4
			l2.5,3.6c-0.5,0.7-0.9,1.5-1.3,2.3l-4.4-0.3l-1,3l3.6,2.4c-0.2,1-0.3,1.9-0.4,2.9l-4.1,1.4l0.2,3.2l4.3,0.8
			c0.2,0.9,0.4,1.7,0.7,2.6l-3.4,2.9l1.4,2.8l4.3-0.9c0.5,0.8,1.1,1.6,1.8,2.3l-1.9,3.9l2.4,2.1l3.6-2.5c0.7,0.5,1.5,0.9,2.3,1.3
			l-0.3,4.4l3,1l2.4-3.6c1,0.2,1.9,0.3,2.9,0.4l1.4,4.1l3.2-0.2l0.8-4.3c0.9-0.2,1.7-0.4,2.6-0.7l2.9,3.4l2.8-1.4l-0.9-4.3
			c0.8-0.5,1.6-1.1,2.3-1.8l3.9,1.9l2.1-2.4l-2.5-3.6c0.5-0.7,0.9-1.5,1.3-2.3l4.4,0.3l1-3l-3.6-2.4
			C362.3,278.7,362.4,277.8,362.5,276.8 M341.7,291.6c-8.9,0-16-7.2-16-16s7.2-16,16-16c8.9,0,16,7.2,16,16S350.5,291.6,341.7,291.6
			"/>
	</g>
	<g>
		<path class="st0" d="M442.2,464.6c-5.6,0-10.2,4.6-10.2,10.2c0,5.6,4.6,10.2,10.2,10.2c5.6,0,10.2-4.6,10.2-10.2
			C452.4,469.2,447.8,464.6,442.2,464.6 M442.2,479.3c-2.5,0-4.5-2-4.5-4.5c0-2.5,2-4.5,4.5-4.5c2.5,0,4.5,2,4.5,4.5
			C446.7,477.3,444.7,479.3,442.2,479.3"/>
		<path class="st0" d="M473.1,476.7l6.2-2.1l-0.3-4.8l-6.4-1.2c-0.3-1.3-0.6-2.6-1-3.9l5-4.3l-2.1-4.3l-6.5,1.3
			c-0.8-1.2-1.7-2.4-2.7-3.5l2.9-5.9l-3.6-3.1l-5.4,3.7c-1.1-0.7-2.3-1.4-3.5-2l0.5-6.5l-4.5-1.5l-3.6,5.5c-1.4-0.3-2.9-0.5-4.4-0.6
			l-2.1-6.2l-4.7,0.3l-1.2,6.4c-1.3,0.3-2.6,0.6-3.9,1l-4.3-5l-4.3,2.1l1.3,6.5c-1.2,0.8-2.4,1.7-3.5,2.7l-5.9-2.9l-3.1,3.6l3.7,5.4
			c-0.7,1.1-1.4,2.3-2,3.5l-6.5-0.5l-1.5,4.5l5.5,3.6c-0.3,1.4-0.5,2.9-0.6,4.4l-6.2,2.1l0.3,4.7l6.4,1.2c0.3,1.3,0.6,2.6,1,3.9
			l-5,4.3l2.1,4.3l6.5-1.3c0.8,1.2,1.7,2.4,2.7,3.5l-2.9,5.9l3.6,3.1l5.4-3.7c1.1,0.7,2.3,1.4,3.5,2l-0.5,6.5l4.5,1.5l3.6-5.5
			c1.4,0.3,2.9,0.5,4.4,0.6l2.1,6.2l4.7-0.3l1.2-6.4c1.3-0.3,2.6-0.6,3.9-1l4.3,5l4.3-2.1l-1.3-6.5c1.2-0.8,2.4-1.7,3.5-2.7l5.9,2.9
			l3.1-3.6l-3.7-5.4c0.7-1.1,1.4-2.3,2-3.5l6.5,0.5l1.5-4.5l-5.5-3.6C472.8,479.6,473,478.1,473.1,476.7 M441.8,498.9
			c-13.3,0-24.1-10.8-24.1-24.1c0-13.3,10.8-24.1,24.1-24.1c13.3,0,24.1,10.8,24.1,24.1C465.9,488.1,455.1,498.9,441.8,498.9"/>
	</g>
	<g>
		<path class="st0" d="M387.9,471c-1.1,0-2,0.9-2,2c0,1.1,0.9,2,2,2s2-0.9,2-2C389.9,471.9,389,471,387.9,471 M387.9,473.9
			c-0.5,0-0.9-0.4-0.9-0.9s0.4-0.9,0.9-0.9s0.9,0.4,0.9,0.9S388.4,473.9,387.9,473.9"/>
		<path class="st0" d="M393.9,473.4l1.2-0.4l-0.1-0.9l-1.3-0.2c-0.1-0.3-0.1-0.5-0.2-0.8l1-0.8l-0.4-0.8l-1.3,0.3
			c-0.2-0.2-0.3-0.5-0.5-0.7l0.6-1.2l-0.7-0.6l-1.1,0.7c-0.2-0.1-0.4-0.3-0.7-0.4l0.1-1.3l-0.9-0.3L389,467
			c-0.3-0.1-0.6-0.1-0.9-0.1l-0.4-1.2l-0.9,0.1l-0.2,1.3c-0.3,0.1-0.5,0.1-0.8,0.2l-0.8-1l-0.8,0.4l0.3,1.3
			c-0.2,0.2-0.5,0.3-0.7,0.5l-1.2-0.6l-0.6,0.7l0.7,1.1c-0.1,0.2-0.3,0.4-0.4,0.7l-1.3-0.1l-0.3,0.9l1.1,0.7
			c-0.1,0.3-0.1,0.6-0.1,0.9l-1.2,0.4l0.1,0.9l1.3,0.2c0.1,0.3,0.1,0.5,0.2,0.8l-1,0.8l0.4,0.8l1.3-0.3c0.2,0.2,0.3,0.5,0.5,0.7
			l-0.6,1.2l0.7,0.6l1.1-0.7c0.2,0.1,0.4,0.3,0.7,0.4l-0.1,1.3l0.9,0.3l0.7-1.1c0.3,0.1,0.6,0.1,0.9,0.1l0.4,1.2l0.9-0.1l0.2-1.3
			c0.3-0.1,0.5-0.1,0.8-0.2l0.8,1l0.8-0.4l-0.3-1.3c0.2-0.2,0.5-0.3,0.7-0.5l1.2,0.6l0.6-0.7l-0.7-1.1c0.1-0.2,0.3-0.4,0.4-0.7
			l1.3,0.1l0.3-0.9l-1.1-0.7C393.9,473.9,393.9,473.7,393.9,473.4 M387.8,477.7c-2.6,0-4.7-2.1-4.7-4.7c0-2.6,2.1-4.7,4.7-4.7
			c2.6,0,4.7,2.1,4.7,4.7C392.5,475.6,390.4,477.7,387.8,477.7"/>
	</g>
	<g>
		<path class="st0" d="M340.5,382.1c-1.4,0-2.5,1.1-2.5,2.5c0,1.4,1.1,2.5,2.5,2.5c1.4,0,2.5-1.1,2.5-2.5
			C343,383.2,341.9,382.1,340.5,382.1 M340.5,385.8c-0.6,0-1.1-0.5-1.1-1.1c0-0.6,0.5-1.1,1.1-1.1c0.6,0,1.1,0.5,1.1,1.1
			C341.6,385.2,341.1,385.8,340.5,385.8"/>
		<path class="st0" d="M348.2,385.1l1.5-0.5l-0.1-1.2l-1.6-0.3c-0.1-0.3-0.2-0.6-0.3-1l1.3-1.1l-0.5-1.1l-1.6,0.3
			c-0.2-0.3-0.4-0.6-0.7-0.9l0.7-1.5l-0.9-0.8l-1.3,0.9c-0.3-0.2-0.6-0.4-0.9-0.5l0.1-1.6l-1.1-0.4l-0.9,1.4
			c-0.4-0.1-0.7-0.1-1.1-0.1l-0.5-1.6l-1.2,0.1l-0.3,1.6c-0.3,0.1-0.6,0.2-1,0.3l-1.1-1.3l-1.1,0.5l0.3,1.6
			c-0.3,0.2-0.6,0.4-0.9,0.7l-1.5-0.7l-0.8,0.9l0.9,1.3c-0.2,0.3-0.4,0.6-0.5,0.9l-1.6-0.1l-0.4,1.1l1.4,0.9
			c-0.1,0.4-0.1,0.7-0.1,1.1l-1.5,0.5l0.1,1.2l1.6,0.3c0.1,0.3,0.2,0.6,0.3,1l-1.3,1.1l0.5,1.1l1.6-0.3c0.2,0.3,0.4,0.6,0.7,0.9
			l-0.7,1.5l0.9,0.8l1.3-0.9c0.3,0.2,0.6,0.4,0.9,0.5l-0.1,1.6l1.1,0.4l0.9-1.4c0.4,0.1,0.7,0.1,1.1,0.1l0.5,1.6l1.2-0.1l0.3-1.6
			c0.3-0.1,0.6-0.2,1-0.3l1.1,1.3l1.1-0.5l-0.3-1.6c0.3-0.2,0.6-0.4,0.9-0.7l1.5,0.7l0.8-0.9l-0.9-1.3c0.2-0.3,0.4-0.6,0.5-0.9
			l1.6,0.1l0.4-1.1l-1.4-0.9C348.1,385.8,348.1,385.5,348.2,385.1 M340.4,390.6c-3.3,0-6-2.7-6-6c0-3.3,2.7-6,6-6c3.3,0,6,2.7,6,6
			C346.4,387.9,343.7,390.6,340.4,390.6"/>
	</g>
	<g>
		<path class="st0" d="M342.4,503.4c-1.1,0-2,0.9-2,2s0.9,2,2,2s2-0.9,2-2S343.5,503.4,342.4,503.4 M342.4,506.2
			c-0.5,0-0.9-0.4-0.9-0.9c0-0.5,0.4-0.9,0.9-0.9s0.9,0.4,0.9,0.9C343.3,505.8,342.9,506.2,342.4,506.2"/>
		<path class="st0" d="M348.5,505.7l1.2-0.4l-0.1-0.9l-1.3-0.2c-0.1-0.3-0.1-0.5-0.2-0.8l1-0.8l-0.4-0.8l-1.3,0.3
			c-0.2-0.2-0.3-0.5-0.5-0.7l0.6-1.2l-0.7-0.6l-1.1,0.7c-0.2-0.1-0.4-0.3-0.7-0.4l0.1-1.3l-0.9-0.3l-0.7,1.1
			c-0.3-0.1-0.6-0.1-0.9-0.1l-0.4-1.2l-0.9,0.1l-0.2,1.3c-0.3,0.1-0.5,0.1-0.8,0.2l-0.8-1l-0.8,0.4l0.3,1.3
			c-0.2,0.2-0.5,0.3-0.7,0.5l-1.2-0.6l-0.6,0.7l0.7,1.1c-0.1,0.2-0.3,0.4-0.4,0.7l-1.3-0.1l-0.3,0.9l1.1,0.7
			c-0.1,0.3-0.1,0.6-0.1,0.9l-1.2,0.4l0.1,0.9l1.3,0.2c0.1,0.3,0.1,0.5,0.2,0.8l-1,0.8l0.4,0.8l1.3-0.3c0.2,0.2,0.3,0.5,0.5,0.7
			l-0.6,1.2l0.7,0.6l1.1-0.7c0.2,0.1,0.4,0.3,0.7,0.4l-0.1,1.3l0.9,0.3l0.7-1.1c0.3,0.1,0.6,0.1,0.9,0.1l0.4,1.2l0.9-0.1l0.2-1.3
			c0.3-0.1,0.5-0.1,0.8-0.2l0.8,1l0.8-0.4l-0.3-1.3c0.2-0.2,0.5-0.3,0.7-0.5l1.2,0.6l0.6-0.7l-0.7-1.1c0.1-0.2,0.3-0.4,0.4-0.7
			l1.3,0.1l0.3-0.9l-1.1-0.7C348.4,506.3,348.4,506,348.5,505.7 M342.3,510.1c-2.6,0-4.7-2.1-4.7-4.7c0-2.6,2.1-4.7,4.7-4.7
			c2.6,0,4.7,2.1,4.7,4.7C347,508,344.9,510.1,342.3,510.1"/>
	</g>
	<g>
		<path class="st0" d="M402.2,468.9c-0.7,0-1.2,0.5-1.2,1.2c0,0.7,0.5,1.2,1.2,1.2c0.7,0,1.2-0.5,1.2-1.2
			C403.4,469.4,402.8,468.9,402.2,468.9 M402.2,470.6c-0.3,0-0.5-0.2-0.5-0.5c0-0.3,0.2-0.5,0.5-0.5c0.3,0,0.5,0.2,0.5,0.5
			C402.7,470.4,402.5,470.6,402.2,470.6"/>
		<path class="st0" d="M405.8,470.3l0.7-0.2l0-0.6l-0.8-0.1c0-0.2-0.1-0.3-0.1-0.5l0.6-0.5l-0.2-0.5l-0.8,0.2
			c-0.1-0.1-0.2-0.3-0.3-0.4l0.3-0.7l-0.4-0.4l-0.6,0.4c-0.1-0.1-0.3-0.2-0.4-0.2l0.1-0.8l-0.5-0.2l-0.4,0.6c-0.2,0-0.3-0.1-0.5-0.1
			l-0.2-0.7l-0.6,0l-0.1,0.8c-0.2,0-0.3,0.1-0.5,0.1l-0.5-0.6l-0.5,0.2l0.2,0.8c-0.1,0.1-0.3,0.2-0.4,0.3L399,467l-0.4,0.4l0.4,0.6
			c-0.1,0.1-0.2,0.3-0.2,0.4l-0.8-0.1l-0.2,0.5l0.6,0.4c0,0.2-0.1,0.3-0.1,0.5l-0.7,0.2l0,0.6l0.8,0.1c0,0.2,0.1,0.3,0.1,0.5
			l-0.6,0.5l0.2,0.5l0.8-0.2c0.1,0.1,0.2,0.3,0.3,0.4l-0.3,0.7l0.4,0.4l0.6-0.4c0.1,0.1,0.3,0.2,0.4,0.2l-0.1,0.8l0.5,0.2l0.4-0.6
			c0.2,0,0.3,0.1,0.5,0.1l0.2,0.7l0.6,0l0.1-0.8c0.2,0,0.3-0.1,0.5-0.1l0.5,0.6l0.5-0.2l-0.2-0.8c0.1-0.1,0.3-0.2,0.4-0.3l0.7,0.3
			l0.4-0.4l-0.4-0.6c0.1-0.1,0.2-0.3,0.2-0.4l0.8,0.1l0.2-0.5l-0.6-0.4C405.8,470.7,405.8,470.5,405.8,470.3 M402.1,473
			c-1.6,0-2.9-1.3-2.9-2.9s1.3-2.9,2.9-2.9c1.6,0,2.9,1.3,2.9,2.9S403.7,473,402.1,473"/>
	</g>
	<g>
		<path class="st0" d="M493.8,415.8c-1.2,0-2.2,1-2.2,2.2c0,1.2,1,2.2,2.2,2.2c1.2,0,2.2-1,2.2-2.2C496,416.8,495,415.8,493.8,415.8
			 M493.8,419c-0.5,0-1-0.4-1-1c0-0.5,0.4-1,1-1c0.5,0,1,0.4,1,1C494.8,418.5,494.3,419,493.8,419"/>
		<path class="st0" d="M500.5,418.4l1.4-0.5l-0.1-1l-1.4-0.3c-0.1-0.3-0.1-0.6-0.2-0.8l1.1-0.9l-0.5-0.9l-1.4,0.3
			c-0.2-0.3-0.4-0.5-0.6-0.8l0.6-1.3l-0.8-0.7l-1.2,0.8c-0.2-0.2-0.5-0.3-0.8-0.4l0.1-1.4l-1-0.3l-0.8,1.2c-0.3-0.1-0.6-0.1-1-0.1
			l-0.5-1.4l-1,0.1l-0.3,1.4c-0.3,0.1-0.6,0.1-0.8,0.2l-0.9-1.1l-0.9,0.5l0.3,1.4c-0.3,0.2-0.5,0.4-0.8,0.6l-1.3-0.6l-0.7,0.8
			l0.8,1.2c-0.2,0.2-0.3,0.5-0.4,0.8l-1.4-0.1l-0.3,1l1.2,0.8c-0.1,0.3-0.1,0.6-0.1,1l-1.4,0.5l0.1,1l1.4,0.3
			c0.1,0.3,0.1,0.6,0.2,0.8l-1.1,0.9l0.5,0.9l1.4-0.3c0.2,0.3,0.4,0.5,0.6,0.8l-0.6,1.3l0.8,0.7l1.2-0.8c0.2,0.2,0.5,0.3,0.8,0.4
			l-0.1,1.4l1,0.3l0.8-1.2c0.3,0.1,0.6,0.1,1,0.1l0.5,1.4l1-0.1l0.3-1.4c0.3-0.1,0.6-0.1,0.8-0.2l0.9,1.1l0.9-0.5l-0.3-1.4
			c0.3-0.2,0.5-0.4,0.8-0.6l1.3,0.6l0.7-0.8l-0.8-1.2c0.2-0.2,0.3-0.5,0.4-0.8l1.4,0.1l0.3-1l-1.2-0.8
			C500.5,419,500.5,418.7,500.5,418.4 M493.7,423.3c-2.9,0-5.3-2.4-5.3-5.3c0-2.9,2.4-5.3,5.3-5.3c2.9,0,5.3,2.4,5.3,5.3
			C499,420.9,496.6,423.3,493.7,423.3"/>
	</g>
	<g>
		<path class="st0" d="M482.5,341.4c-1.2,0-2.2,1-2.2,2.2c0,1.2,1,2.2,2.2,2.2c1.2,0,2.2-1,2.2-2.2
			C484.7,342.4,483.7,341.4,482.5,341.4 M482.5,344.6c-0.5,0-1-0.4-1-1c0-0.5,0.4-1,1-1c0.5,0,1,0.4,1,1
			C483.5,344.1,483,344.6,482.5,344.6"/>
		<path class="st0" d="M489.2,344l1.4-0.5l-0.1-1l-1.4-0.3c-0.1-0.3-0.1-0.6-0.2-0.8l1.1-0.9l-0.5-0.9l-1.4,0.3
			c-0.2-0.3-0.4-0.5-0.6-0.8l0.6-1.3l-0.8-0.7l-1.2,0.8c-0.2-0.2-0.5-0.3-0.8-0.4l0.1-1.4l-1-0.3l-0.8,1.2c-0.3-0.1-0.6-0.1-1-0.1
			l-0.5-1.4l-1,0.1l-0.3,1.4c-0.3,0.1-0.6,0.1-0.8,0.2l-0.9-1.1l-0.9,0.5l0.3,1.4c-0.3,0.2-0.5,0.4-0.8,0.6l-1.3-0.6l-0.7,0.8
			l0.8,1.2c-0.2,0.2-0.3,0.5-0.4,0.8l-1.4-0.1l-0.3,1l1.2,0.8c-0.1,0.3-0.1,0.6-0.1,1l-1.4,0.5l0.1,1l1.4,0.3
			c0.1,0.3,0.1,0.6,0.2,0.8l-1.1,0.9l0.5,0.9l1.4-0.3c0.2,0.3,0.4,0.5,0.6,0.8l-0.6,1.3l0.8,0.7l1.2-0.8c0.2,0.2,0.5,0.3,0.8,0.4
			l-0.1,1.4l1,0.3l0.8-1.2c0.3,0.1,0.6,0.1,1,0.1l0.5,1.4l1-0.1l0.3-1.4c0.3-0.1,0.6-0.1,0.8-0.2l0.9,1.1l0.9-0.5l-0.3-1.4
			c0.3-0.2,0.5-0.4,0.8-0.6l1.3,0.6l0.7-0.8l-0.8-1.2c0.2-0.2,0.3-0.5,0.4-0.8l1.4,0.1l0.3-1l-1.2-0.8
			C489.2,344.6,489.2,344.3,489.2,344 M482.4,348.8c-2.9,0-5.3-2.4-5.3-5.3c0-2.9,2.4-5.3,5.3-5.3c2.9,0,5.3,2.4,5.3,5.3
			C487.7,346.5,485.3,348.8,482.4,348.8"/>
	</g>
	<g>
		<path class="st0" d="M331.6,496.5c-0.7,0-1.2,0.5-1.2,1.2c0,0.7,0.5,1.2,1.2,1.2c0.7,0,1.2-0.5,1.2-1.2
			C332.8,497,332.2,496.5,331.6,496.5 M331.6,498.2c-0.3,0-0.5-0.2-0.5-0.5c0-0.3,0.2-0.5,0.5-0.5c0.3,0,0.5,0.2,0.5,0.5
			C332.1,498,331.9,498.2,331.6,498.2"/>
		<path class="st0" d="M335.2,497.9l0.7-0.2l0-0.6l-0.8-0.1c0-0.2-0.1-0.3-0.1-0.5l0.6-0.5l-0.2-0.5l-0.8,0.2
			c-0.1-0.1-0.2-0.3-0.3-0.4l0.3-0.7l-0.4-0.4l-0.6,0.4c-0.1-0.1-0.3-0.2-0.4-0.2l0.1-0.8l-0.5-0.2l-0.4,0.6c-0.2,0-0.3-0.1-0.5-0.1
			l-0.2-0.7l-0.6,0l-0.1,0.8c-0.2,0-0.3,0.1-0.5,0.1l-0.5-0.6l-0.5,0.3l0.2,0.8c-0.1,0.1-0.3,0.2-0.4,0.3l-0.7-0.3L328,495l0.4,0.6
			c-0.1,0.1-0.2,0.3-0.2,0.4l-0.8-0.1l-0.2,0.5l0.6,0.4c0,0.2-0.1,0.3-0.1,0.5l-0.7,0.2l0,0.6l0.8,0.1c0,0.2,0.1,0.3,0.1,0.5
			l-0.6,0.5l0.2,0.5l0.8-0.2c0.1,0.1,0.2,0.3,0.3,0.4l-0.3,0.7l0.4,0.4l0.6-0.4c0.1,0.1,0.3,0.2,0.4,0.2l-0.1,0.8l0.5,0.2l0.4-0.6
			c0.2,0,0.3,0.1,0.5,0.1l0.2,0.7l0.6,0l0.1-0.8c0.2,0,0.3-0.1,0.5-0.1l0.5,0.6l0.5-0.3l-0.2-0.8c0.1-0.1,0.3-0.2,0.4-0.3l0.7,0.3
			l0.4-0.4l-0.4-0.6c0.1-0.1,0.2-0.3,0.2-0.4l0.8,0.1l0.2-0.5l-0.6-0.4C335.2,498.3,335.2,498.1,335.2,497.9 M331.5,500.5
			c-1.6,0-2.9-1.3-2.9-2.9s1.3-2.9,2.9-2.9c1.6,0,2.9,1.3,2.9,2.9S333.1,500.5,331.5,500.5"/>
	</g>
	<g>
		<path class="st0" d="M360,341.6l5.8-1.9l-0.3-4.4l-6-1.1c-0.2-1.2-0.6-2.4-1-3.6l4.7-4l-1.9-4l-6,1.2c-0.8-1.2-1.6-2.2-2.5-3.2
			l2.7-5.4l-3.3-2.9l-5,3.4c-1-0.7-2.1-1.3-3.2-1.8l0.5-6.1l-4.2-1.4l-3.4,5.1c-1.3-0.3-2.7-0.4-4-0.5l-1.9-5.8l-4.4,0.3l-1.1,6
			c-1.2,0.2-2.4,0.6-3.6,1l-4-4.7l-4,1.9l1.2,6c-1.2,0.8-2.2,1.6-3.2,2.5l-5.4-2.7l-2.9,3.3l3.4,5c-0.7,1-1.3,2.1-1.8,3.2l-6.1-0.5
			l-1.4,4.2l5.1,3.4c-0.3,1.3-0.5,2.7-0.5,4l-5.8,1.9l0.3,4.4l6,1.1c0.2,1.2,0.6,2.4,1,3.6l-4.7,4l1.9,4l6-1.2
			c0.8,1.2,1.6,2.2,2.5,3.2l-2.7,5.4l3.3,2.9l5-3.4c1,0.7,2.1,1.3,3.2,1.8l-0.5,6.1l4.2,1.4l3.4-5.1c1.3,0.3,2.7,0.5,4,0.5l1.9,5.8
			l4.4-0.3l1.1-6c1.2-0.2,2.4-0.6,3.6-1l4,4.7l4-1.9l-1.2-6c1.2-0.8,2.2-1.6,3.2-2.5l5.4,2.7l2.9-3.3l-3.4-5c0.7-1,1.3-2.1,1.8-3.2
			l6.1,0.5l1.4-4.2l-5.1-3.4C359.7,344.4,359.9,343,360,341.6 M331,350.5c-5.9,0-10.6-4.8-10.6-10.6c0-5.9,4.8-10.6,10.6-10.6
			c5.9,0,10.6,4.8,10.6,10.6C341.6,345.8,336.9,350.5,331,350.5"/>
	</g>
	<g>
		<path class="st0" d="M474.5,310.1l10-3.4L484,299l-10.4-1.9c-0.4-2.1-1-4.2-1.7-6.2l8.1-6.9l-3.4-6.9l-10.5,2.2
			c-1.3-2-2.8-3.9-4.3-5.6l4.7-9.5l-5.8-5l-8.7,6c-1.8-1.2-3.7-2.3-5.6-3.2l0.8-10.5l-7.3-2.5l-5.8,8.8c-2.3-0.5-4.7-0.8-7-0.9
			l-3.4-10l-7.7,0.5l-1.9,10.4c-2.1,0.4-4.2,1-6.2,1.7l-6.9-8.1l-6.9,3.4l2.2,10.5c-2,1.3-3.9,2.8-5.6,4.3l-9.5-4.7l-5,5.8l6,8.7
			c-1.2,1.8-2.3,3.7-3.2,5.6l-10.6-0.8l-2.5,7.3l8.8,5.8c-0.5,2.3-0.8,4.7-0.9,7l-10,3.4l0.5,7.7l10.4,1.9c0.4,2.1,1,4.2,1.7,6.2
			l-8.1,6.9l3.4,6.9l10.5-2.2c1.3,2,2.8,3.9,4.3,5.6l-4.7,9.5l5.8,5l8.7-6c1.8,1.2,3.7,2.3,5.6,3.2l-0.8,10.5l7.3,2.5l5.8-8.8
			c2.3,0.5,4.7,0.8,7,0.9l3.4,10l7.7-0.5l1.9-10.4c2.1-0.4,4.2-1,6.2-1.7l6.9,8.1l6.9-3.4l-2.2-10.5c2-1.3,3.9-2.8,5.6-4.3l9.5,4.7
			l5-5.8l-6-8.7c1.2-1.8,2.3-3.7,3.2-5.6l10.6,0.8l2.5-7.3l-8.8-5.8C474.1,314.8,474.4,312.4,474.5,310.1 M424.1,349.2
			c-23.3,0-42.1-18.9-42.1-42.1c0-23.3,18.8-42.1,42.1-42.1c23.3,0,42.1,18.9,42.1,42.1C466.2,330.3,447.3,349.2,424.1,349.2"/>
	</g>
	<g>
		<path class="st0" d="M518.1,300l2.9-1l-0.2-2.2l-3-0.6c-0.1-0.6-0.3-1.2-0.5-1.8l2.3-2l-1-2l-3,0.6c-0.4-0.6-0.8-1.1-1.2-1.6
			l1.3-2.7l-1.7-1.4l-2.5,1.7c-0.5-0.3-1-0.6-1.6-0.9l0.2-3l-2.1-0.7l-1.7,2.5c-0.7-0.1-1.3-0.2-2-0.3l-1-2.9l-2.2,0.2l-0.6,3
			c-0.6,0.1-1.2,0.3-1.8,0.5l-2-2.3l-2,1l0.6,3c-0.6,0.4-1.1,0.8-1.6,1.2l-2.7-1.3l-1.4,1.7l1.7,2.5c-0.3,0.5-0.6,1-0.9,1.6l-3-0.2
			l-0.7,2.1l2.5,1.7c-0.1,0.7-0.2,1.3-0.3,2l-2.9,1l0.2,2.2l3,0.6c0.1,0.6,0.3,1.2,0.5,1.8l-2.3,2l1,2l3-0.6
			c0.4,0.6,0.8,1.1,1.2,1.6l-1.3,2.7l1.7,1.4l2.5-1.7c0.5,0.3,1,0.6,1.6,0.9l-0.2,3l2.1,0.7l1.7-2.5c0.7,0.1,1.3,0.2,2,0.3l1,2.9
			l2.2-0.2l0.6-3c0.6-0.1,1.2-0.3,1.8-0.5l2,2.3l2-1l-0.6-3c0.6-0.4,1.1-0.8,1.6-1.2l2.7,1.3l1.4-1.7l-1.7-2.5
			c0.3-0.5,0.6-1,0.9-1.6l3,0.2l0.7-2.1l-2.5-1.7C517.9,301.4,518,300.7,518.1,300 M503.7,304.4c-2.9,0-5.3-2.4-5.3-5.3
			c0-2.9,2.4-5.3,5.3-5.3c2.9,0,5.3,2.4,5.3,5.3C509,302.1,506.6,304.4,503.7,304.4"/>
	</g>
	<g>
		<path class="st0" d="M432,179.3l2.1-0.7L434,177l-2.2-0.4c-0.1-0.4-0.2-0.9-0.4-1.3l1.7-1.5l-0.7-1.5l-2.2,0.5
			c-0.3-0.4-0.6-0.8-0.9-1.2l1-2l-1.2-1.1l-1.9,1.3c-0.4-0.3-0.8-0.5-1.2-0.7l0.2-2.2l-1.5-0.5l-1.2,1.9c-0.5-0.1-1-0.2-1.5-0.2
			l-0.7-2.1l-1.6,0.1l-0.4,2.2c-0.4,0.1-0.9,0.2-1.3,0.4l-1.5-1.7l-1.5,0.7l0.5,2.2c-0.4,0.3-0.8,0.6-1.2,0.9l-2-1l-1.1,1.2l1.3,1.9
			c-0.3,0.4-0.5,0.8-0.7,1.2l-2.2-0.2l-0.5,1.5l1.9,1.2c-0.1,0.5-0.2,1-0.2,1.5l-2.1,0.7l0.1,1.6l2.2,0.4c0.1,0.4,0.2,0.9,0.4,1.3
			l-1.7,1.5l0.7,1.5l2.2-0.5c0.3,0.4,0.6,0.8,0.9,1.2l-1,2l1.2,1.1l1.9-1.3c0.4,0.3,0.8,0.5,1.2,0.7l-0.2,2.2l1.5,0.5l1.2-1.9
			c0.5,0.1,1,0.2,1.5,0.2l0.7,2.1l1.6-0.1l0.4-2.2c0.4-0.1,0.9-0.2,1.3-0.4l1.5,1.7l1.5-0.7l-0.5-2.2c0.4-0.3,0.8-0.6,1.2-0.9l2,1
			l1.1-1.2l-1.3-1.9c0.3-0.4,0.5-0.8,0.7-1.2l2.2,0.2l0.5-1.5l-1.9-1.2C431.9,180.3,431.9,179.8,432,179.3 M421.3,182.6
			c-2.2,0-3.9-1.8-3.9-3.9c0-2.2,1.8-3.9,3.9-3.9c2.2,0,3.9,1.8,3.9,3.9C425.2,180.9,423.4,182.6,421.3,182.6"/>
	</g>
	<g>
		<path class="st0" d="M327.8,439.2l1.5-0.5l-0.1-1.2l-1.6-0.3c-0.1-0.3-0.1-0.6-0.3-1l1.2-1.1l-0.5-1l-1.6,0.3
			c-0.2-0.3-0.4-0.6-0.7-0.9l0.7-1.4l-0.9-0.8l-1.3,0.9c-0.3-0.2-0.6-0.3-0.9-0.5l0.1-1.6l-1.1-0.4l-0.9,1.3
			c-0.4-0.1-0.7-0.1-1.1-0.1l-0.5-1.5l-1.2,0.1l-0.3,1.6c-0.3,0.1-0.6,0.1-0.9,0.3l-1.1-1.2l-1,0.5l0.3,1.6
			c-0.3,0.2-0.6,0.4-0.9,0.7l-1.4-0.7l-0.8,0.9l0.9,1.3c-0.2,0.3-0.3,0.6-0.5,0.9l-1.6-0.1l-0.4,1.1l1.3,0.9
			c-0.1,0.4-0.1,0.7-0.1,1.1l-1.5,0.5l0.1,1.2l1.6,0.3c0.1,0.3,0.1,0.6,0.3,0.9l-1.2,1.1l0.5,1l1.6-0.3c0.2,0.3,0.4,0.6,0.7,0.9
			l-0.7,1.4l0.9,0.8l1.3-0.9c0.3,0.2,0.6,0.3,0.8,0.5l-0.1,1.6l1.1,0.4l0.9-1.3c0.4,0.1,0.7,0.1,1.1,0.1l0.5,1.5l1.2-0.1l0.3-1.6
			c0.3-0.1,0.6-0.1,0.9-0.3l1.1,1.2l1-0.5l-0.3-1.6c0.3-0.2,0.6-0.4,0.9-0.7l1.4,0.7l0.8-0.9l-0.9-1.3c0.2-0.3,0.3-0.6,0.5-0.8
			l1.6,0.1l0.4-1.1l-1.3-0.9C327.7,439.9,327.8,439.5,327.8,439.2 M320.1,441.5c-1.6,0-2.8-1.3-2.8-2.8c0-1.6,1.3-2.8,2.8-2.8
			c1.6,0,2.8,1.3,2.8,2.8C322.9,440.2,321.7,441.5,320.1,441.5"/>
	</g>
	<path class="st0" d="M466,531.7c0,4.4-3.6,8-8,8l-117,21c-4.4,0-8-3.6-8-8v-8c0-4.4,3.6-8,8-8l117-21c4.4,0,8,3.6,8,8V531.7z"/>
	<path class="st0" d="M433.8,517L341,533.7c-4.4,0-8-3.6-8-8v-9L433.8,517"/>
	<path class="st0" d="M466,558.7c0,4.4-3.6,8-8,8l-117,21c-4.4,0-8-3.6-8-8v-8c0-4.4,3.6-8,8-8l117-21c4.4,0,8,3.6,8,8V558.7z"/>
	<path class="st0" d="M466,585.7c0,4.4-3.6,8-8,8l-117,21c-4.4,0-8-3.6-8-8v-8c0-4.4,3.6-8,8-8l117-21c4.4,0,8,3.6,8,8V585.7z"/>
	<path class="st0" d="M552.6,287.9c0-0.2,0-0.3,0-0.5c0-7-0.5-14-1.4-20.7l-16.2-1.2c-0.8-5-1.9-9.8-3.2-14.6l14.2-8.1
		c-2.1-6.8-4.6-13.4-7.6-19.8l-15.8,3.7c-2.3-4.5-4.8-9-7.5-13.2l11.1-11.9c-4-5.8-8.3-11.4-13.1-16.6l-14.1,8.2
		c-3.5-3.7-7.3-7.2-11.2-10.5L495,168c-5.5-4.4-11.3-8.4-17.3-11.9l-11,12c-4.5-2.5-9.1-4.8-13.9-6.8l2.5-16.1
		c-6.5-2.5-13.2-4.6-20-6.2l-7,14.7c-5-1.1-10.2-1.8-15.4-2.3l-2.4-16.1c-3.5-0.2-7-0.4-10.5-0.4c-3.5,0-7,0.1-10.5,0.4l-2.4,16.1
		c-5.2,0.5-10.3,1.3-15.4,2.3l-7-14.7c-6.9,1.6-13.6,3.7-20,6.2l2.5,16.1c-4.8,2-9.4,4.3-13.9,6.8l-11-12
		c-6.1,3.6-11.8,7.6-17.3,11.9l7.1,14.7c-3.9,3.3-7.7,6.8-11.2,10.5l-14.1-8.2c-4.7,5.2-9.1,10.8-13.1,16.6l11.1,11.9
		c-2.7,4.2-5.2,8.6-7.5,13.2l-15.8-3.7c-3,6.4-5.5,13-7.6,19.8l14.2,8.1c-1.3,4.8-2.4,9.6-3.2,14.6l-16.2,1.2
		c-0.9,6.8-1.4,13.7-1.4,20.7c0,0.2,0,0.3,0,0.5l15.9,3.6c0.1,5,0.6,9.9,1.2,14.7l-15.2,5.9c1.2,7.1,2.8,14.1,4.9,20.8l16.3-1.3
		c1.6,4.6,3.4,9.1,5.4,13.5l-12.7,10.1c3.2,6.5,6.9,12.7,10.9,18.5l15.2-6c2.8,3.9,5.8,7.6,9,11.1l-9.2,13.4
		c5,5.2,10.3,10.1,15.9,14.6l12.7-10.2c3.8,2.8,7.7,5.5,11.7,7.9l-4.8,15.5c6.3,3.6,12.8,6.7,19.5,9.3l9.1-13.5
		c4.4,1.6,8.9,3,13.5,4.1l-0.1,16.3c7,1.6,14.2,2.6,21.5,3.2L393,424c2.3,0.1,4.7,0.2,7,0.2c2.4,0,4.7-0.1,7-0.2l4.8,15.6
		c7.3-0.6,14.5-1.6,21.5-3.2l-0.1-16.3c4.6-1.1,9.1-2.5,13.5-4.1l9.1,13.5c6.8-2.7,13.3-5.8,19.5-9.3l-4.8-15.5
		c4.1-2.4,8-5.1,11.7-7.9l12.7,10.2c5.6-4.5,11-9.4,15.9-14.6l-9.2-13.4c3.2-3.5,6.2-7.3,9-11.1l15.2,6c4.1-5.9,7.7-12.1,10.9-18.5
		L524,345.1c2-4.4,3.9-8.9,5.4-13.5l16.3,1.3c2.1-6.8,3.8-13.7,4.9-20.8l-15.2-5.9c0.7-4.8,1.1-9.7,1.2-14.7L552.6,287.9z
		 M400,412.3c-69.1,0-125.1-56-125.1-125.1c0-69.1,56-125.1,125.1-125.1c69.1,0,125.1,56,125.1,125.1
		C525.1,356.3,469.1,412.3,400,412.3z"/>
	<path class="st0" d="M365.6,613.3c8.1,9.7,20.2,15.9,33.9,15.9c19.2,0,35.5-12.3,41.5-29.5L365.6,613.3z"/>
	<g>
		<path class="st0" d="M331.7,234.9l3.4-1.2l-0.2-2.6l-3.6-0.7c-0.1-0.7-0.3-1.4-0.6-2.1l2.8-2.4l-1.2-2.4l-3.6,0.7
			c-0.5-0.7-0.9-1.3-1.5-1.9l1.6-3.2l-2-1.7l-3,2c-0.6-0.4-1.3-0.8-1.9-1.1l0.3-3.6l-2.5-0.9l-2,3c-0.8-0.2-1.6-0.3-2.4-0.3
			l-1.2-3.4l-2.6,0.2L311,217c-0.7,0.1-1.4,0.3-2.1,0.6l-2.4-2.8l-2.4,1.2l0.7,3.6c-0.7,0.5-1.3,0.9-1.9,1.5l-3.2-1.6l-1.7,2l2,3
			c-0.4,0.6-0.8,1.3-1.1,1.9l-3.6-0.3l-0.9,2.5l3,2c-0.2,0.8-0.3,1.6-0.3,2.4l-3.4,1.2l0.2,2.6l3.6,0.7c0.1,0.7,0.3,1.4,0.6,2.1
			l-2.8,2.4l1.2,2.4l3.6-0.7c0.5,0.7,0.9,1.3,1.5,1.9l-1.6,3.2l2,1.7l3-2c0.6,0.4,1.3,0.8,1.9,1.1l-0.3,3.6l2.5,0.9l2-3
			c0.8,0.2,1.6,0.3,2.4,0.3l1.2,3.4l2.6-0.2l0.7-3.6c0.7-0.1,1.4-0.3,2.1-0.6l2.4,2.8l2.4-1.2l-0.7-3.6c0.7-0.5,1.3-0.9,1.9-1.5
			l3.2,1.6l1.7-2l-2-3c0.4-0.6,0.8-1.3,1.1-1.9l3.6,0.3l0.9-2.5l-3-2C331.5,236.6,331.6,235.8,331.7,234.9 M314.4,249.9
			c-8.8,0-16-7.2-16-16c0-8.8,7.2-16,16-16c8.8,0,16,7.2,16,16C330.4,242.7,323.3,249.9,314.4,249.9"/>
		<path class="st0" d="M314.4,246.7c-7,0-12.8-5.7-12.8-12.8c0-7,5.7-12.8,12.8-12.8c7,0,12.8,5.7,12.8,12.8
			C327.2,241,321.5,246.7,314.4,246.7z M314.4,222.6c-6.2,0-11.3,5.1-11.3,11.3c0,6.2,5.1,11.3,11.3,11.3c6.2,0,11.3-5.1,11.3-11.3
			C325.7,227.7,320.7,222.6,314.4,222.6z"/>
	</g>
	<g>
		<path class="st0" d="M312.7,295.9l3.2-1.1l-0.2-2.5l-3.4-0.6c-0.1-0.7-0.3-1.3-0.5-2l2.6-2.2l-1.1-2.2l-3.4,0.7
			c-0.4-0.6-0.9-1.3-1.4-1.8l1.5-3.1l-1.9-1.6l-2.8,1.9c-0.6-0.4-1.2-0.7-1.8-1l0.3-3.4l-2.3-0.8l-1.9,2.9c-0.7-0.2-1.5-0.3-2.3-0.3
			l-1.1-3.2l-2.5,0.2l-0.6,3.4c-0.7,0.1-1.3,0.3-2,0.5l-2.2-2.6l-2.2,1.1l0.7,3.4c-0.6,0.4-1.3,0.9-1.8,1.4l-3.1-1.5l-1.6,1.9
			l1.9,2.8c-0.4,0.6-0.7,1.2-1,1.8l-3.4-0.3l-0.8,2.3l2.9,1.9c-0.2,0.7-0.3,1.5-0.3,2.3l-3.2,1.1l0.2,2.5l3.4,0.6
			c0.1,0.7,0.3,1.3,0.5,2l-2.6,2.2l1.1,2.2l3.4-0.7c0.4,0.6,0.9,1.3,1.4,1.8l-1.5,3.1l1.9,1.6l2.8-1.9c0.6,0.4,1.2,0.7,1.8,1
			L289,313l2.3,0.8l1.9-2.9c0.7,0.2,1.5,0.3,2.3,0.3l1.1,3.2l2.5-0.2l0.6-3.4c0.7-0.1,1.3-0.3,2-0.5l2.2,2.6l2.2-1.1l-0.7-3.4
			c0.6-0.4,1.3-0.9,1.8-1.4l3.1,1.5l1.6-1.9l-1.9-2.8c0.4-0.6,0.7-1.2,1-1.8l3.4,0.3l0.8-2.3l-2.9-1.9
			C312.6,297.4,312.7,296.6,312.7,295.9 M296.4,310c-8.3,0-15.1-6.8-15.1-15.1c0-8.3,6.8-15.1,15.1-15.1c8.3,0,15.1,6.8,15.1,15.1
			C311.5,303.3,304.8,310,296.4,310"/>
		<path class="st0" d="M296.4,309.3c-8,0-14.4-6.5-14.4-14.4c0-8,6.5-14.4,14.4-14.4c8,0,14.4,6.5,14.4,14.4
			C310.9,302.9,304.4,309.3,296.4,309.3z M296.4,282.1c-7,0-12.8,5.7-12.8,12.8s5.7,12.8,12.8,12.8c7,0,12.8-5.7,12.8-12.8
			S303.5,282.1,296.4,282.1z"/>
	</g>
	<g>
		<path class="st0" d="M511.9,331.6l2.1-0.7l-0.1-1.6l-2.2-0.4c-0.1-0.4-0.2-0.9-0.3-1.3l1.7-1.4l-0.7-1.4l-2.2,0.5
			c-0.3-0.4-0.6-0.8-0.9-1.2l1-2L509,321l-1.8,1.2c-0.4-0.2-0.8-0.5-1.2-0.7l0.2-2.2l-1.5-0.5l-1.2,1.8c-0.5-0.1-1-0.2-1.5-0.2
			l-0.7-2.1l-1.6,0.1l-0.4,2.2c-0.4,0.1-0.9,0.2-1.3,0.4l-1.4-1.7l-1.4,0.7l0.5,2.2c-0.4,0.3-0.8,0.6-1.2,0.9l-2-1l-1.1,1.2l1.2,1.8
			c-0.2,0.4-0.5,0.8-0.7,1.2l-2.2-0.2l-0.5,1.5l1.8,1.2c-0.1,0.5-0.2,1-0.2,1.5l-2.1,0.7l0.1,1.6l2.2,0.4c0.1,0.4,0.2,0.9,0.4,1.3
			l-1.7,1.4l0.7,1.4l2.2-0.5c0.3,0.4,0.6,0.8,0.9,1.2l-1,2l1.2,1.1l1.8-1.2c0.4,0.2,0.8,0.5,1.2,0.7l-0.2,2.2l1.5,0.5l1.2-1.8
			c0.5,0.1,1,0.2,1.5,0.2l0.7,2.1l1.6-0.1l0.4-2.2c0.4-0.1,0.9-0.2,1.3-0.4l1.4,1.7l1.4-0.7l-0.5-2.2c0.4-0.3,0.8-0.6,1.2-0.9l2,1
			l1-1.2l-1.2-1.8c0.2-0.4,0.5-0.8,0.7-1.2l2.2,0.2l0.5-1.5l-1.8-1.2C511.8,332.6,511.8,332.1,511.9,331.6 M501.4,340.7
			c-5.4,0-9.7-4.4-9.7-9.7c0-5.4,4.4-9.7,9.7-9.7c5.4,0,9.7,4.4,9.7,9.7C511.1,336.4,506.8,340.7,501.4,340.7"/>
		<path class="st0" d="M501.4,340.3c-5.1,0-9.3-4.2-9.3-9.3c0-5.1,4.2-9.3,9.3-9.3c5.1,0,9.3,4.2,9.3,9.3
			C510.7,336.1,506.5,340.3,501.4,340.3z M501.4,322.7c-4.5,0-8.2,3.7-8.2,8.2c0,4.5,3.7,8.2,8.2,8.2c4.5,0,8.2-3.7,8.2-8.2
			C509.6,326.4,505.9,322.7,501.4,322.7z"/>
	</g>
	<path class="st0" d="M483.7,221v-8.4l-6.3-0.9c-0.6-2.7-1.5-5.2-2.8-7.5l4.1-4.7l-5.4-6.4l-5.5,3.3c-2.1-1.6-4.4-2.9-6.9-3.9
		l0.2-6.3l-8.3-1.5l-2.1,6.2c-2.7,0.1-5.3,0.6-7.7,1.5l-4-5.1l-7.3,4.2l2.4,6.2c-1.9,1.7-3.5,3.7-4.8,6l-6.5-1.3l-2.9,7.9l5.9,3.2
		c-0.2,1.1-0.2,2.3-0.2,3.5c0,1.4,0.1,2.8,0.3,4.1l-5.9,3.2l2.9,7.9l6.6-1.3c1.4,2.2,3,4.1,4.9,5.8l-2.4,6.2l7.3,4.2l4.2-5.2
		c2.4,0.8,5,1.2,7.6,1.3l2.1,6.2l8.3-1.5l-0.2-6.5c2.5-1,4.8-2.3,6.8-4l5.4,3.3l5.4-6.4l-4.2-4.8c1.3-2.3,2.2-4.8,2.7-7.5L483.7,221
		z M451.9,236.2c-10.5,0-19.1-8.6-19.1-19.1c0-10.5,8.6-19.1,19.1-19.1s19.1,8.6,19.1,19.1C471,227.6,462.4,236.2,451.9,236.2z"/>
	<path class="st0" d="M443.1,389v-4.8l-3.5-0.5c-0.3-1.5-0.9-2.9-1.6-4.2l2.3-2.6l-3.1-3.6l-3.1,1.9c-1.2-0.9-2.5-1.7-3.9-2.2
		l0.1-3.6l-4.7-0.8l-1.2,3.5c-1.5,0.1-3,0.4-4.3,0.8l-2.3-2.9l-4.1,2.4l1.4,3.5c-1.1,1-2,2.1-2.7,3.4l-3.7-0.7l-1.6,4.5l3.4,1.8
		c-0.1,0.6-0.1,1.3-0.1,2c0,0.8,0.1,1.6,0.2,2.3l-3.3,1.8l1.6,4.5l3.8-0.8c0.8,1.2,1.7,2.3,2.8,3.3l-1.4,3.5l4.1,2.4l2.4-3
		c1.4,0.4,2.8,0.7,4.3,0.7l1.2,3.5l4.7-0.8l-0.1-3.7c1.4-0.6,2.7-1.3,3.8-2.2l3.1,1.9l3.1-3.6l-2.4-2.7c0.7-1.3,1.2-2.7,1.5-4.3
		L443.1,389z M425,397.6c-6,0-10.8-4.8-10.8-10.8c0-6,4.8-10.8,10.8-10.8c6,0,10.8,4.8,10.8,10.8C435.9,392.7,431,397.6,425,397.6z"
		/>
	<path class="st0" d="M502.6,353.4v-1.5l-1.1-0.2c-0.1-0.5-0.3-0.9-0.5-1.4l0.8-0.9l-1-1.2l-1,0.6c-0.4-0.3-0.8-0.5-1.3-0.7l0-1.2
		l-1.5-0.3l-0.4,1.1c-0.5,0-1,0.1-1.4,0.3l-0.7-0.9l-1.3,0.8l0.4,1.1c-0.3,0.3-0.6,0.7-0.9,1.1l-1.2-0.2l-0.5,1.4l1.1,0.6
		c0,0.2,0,0.4,0,0.6c0,0.3,0,0.5,0.1,0.8L491,354l0.5,1.4l1.2-0.2c0.2,0.4,0.6,0.8,0.9,1.1l-0.4,1.1l1.3,0.8l0.8-1
		c0.4,0.1,0.9,0.2,1.4,0.2l0.4,1.1l1.5-0.3l0-1.2c0.5-0.2,0.9-0.4,1.2-0.7l1,0.6l1-1.2l-0.8-0.9c0.2-0.4,0.4-0.9,0.5-1.4
		L502.6,353.4z M496.8,356.2c-1.9,0-3.5-1.6-3.5-3.5c0-1.9,1.6-3.5,3.5-3.5c1.9,0,3.5,1.6,3.5,3.5
		C500.3,354.6,498.7,356.2,496.8,356.2z"/>
	<path class="st0" d="M406.2,454.6v-3.3l-2.4-0.4c-0.2-1-0.6-2-1.1-2.9l1.6-1.8l-2.1-2.5L400,445c-0.8-0.6-1.7-1.1-2.7-1.5l0.1-2.5
		l-3.2-0.6l-0.8,2.4c-1,0-2.1,0.2-3,0.6l-1.6-2l-2.8,1.6l1,2.4c-0.7,0.7-1.4,1.5-1.9,2.3l-2.5-0.5l-1.1,3.1l2.3,1.3
		c-0.1,0.4-0.1,0.9-0.1,1.4c0,0.5,0,1.1,0.1,1.6l-2.3,1.2l1.1,3.1l2.6-0.5c0.5,0.8,1.2,1.6,1.9,2.3l-0.9,2.4l2.8,1.6l1.6-2
		c0.9,0.3,1.9,0.5,3,0.5l0.8,2.4l3.2-0.6l-0.1-2.5c1-0.4,1.9-0.9,2.7-1.5l2.1,1.3l2.1-2.5l-1.7-1.9c0.5-0.9,0.8-1.9,1-2.9
		L406.2,454.6z M393.8,460.5c-4.1,0-7.5-3.3-7.5-7.5c0-4.1,3.3-7.5,7.5-7.5s7.5,3.3,7.5,7.5C401.2,457.2,397.9,460.5,393.8,460.5z"
		/>
	<path class="st0" d="M323,420.8v-3.2l-2.4-0.4c-0.2-1-0.6-2-1.1-2.8l1.6-1.8l-2-2.4l-2.1,1.3c-0.8-0.6-1.7-1.1-2.6-1.5l0.1-2.4
		l-3.1-0.6l-0.8,2.3c-1,0-2,0.2-2.9,0.6l-1.5-1.9l-2.7,1.6l0.9,2.3c-0.7,0.7-1.3,1.4-1.8,2.3l-2.4-0.5l-1.1,3l2.2,1.2
		c-0.1,0.4-0.1,0.9-0.1,1.3c0,0.5,0,1,0.1,1.6l-2.2,1.2l1.1,3l2.5-0.5c0.5,0.8,1.1,1.6,1.9,2.2l-0.9,2.3l2.7,1.6l1.6-2
		c0.9,0.3,1.9,0.5,2.9,0.5l0.8,2.3l3.1-0.6l-0.1-2.5c0.9-0.4,1.8-0.9,2.6-1.5l2,1.3l2-2.4l-1.6-1.8c0.5-0.9,0.8-1.8,1-2.8L323,420.8
		z M310.9,426.5c-4,0-7.2-3.2-7.2-7.2s3.2-7.2,7.2-7.2c4,0,7.2,3.2,7.2,7.2S314.9,426.5,310.9,426.5z"/>
	<path class="st0" d="M406.4,499.8v-4.5l-3.3-0.5c-0.3-1.4-0.8-2.8-1.5-4l2.2-2.5l-2.9-3.4l-2.9,1.8c-1.1-0.9-2.3-1.6-3.7-2.1
		l0.1-3.4l-4.4-0.8l-1.1,3.3c-1.4,0.1-2.8,0.3-4.1,0.8l-2.1-2.7l-3.9,2.2l1.3,3.3c-1,0.9-1.9,2-2.6,3.2l-3.4-0.7l-1.5,4.2l3.2,1.7
		c-0.1,0.6-0.1,1.2-0.1,1.8c0,0.7,0.1,1.5,0.2,2.2l-3.1,1.7l1.5,4.2l3.5-0.7c0.7,1.1,1.6,2.2,2.6,3.1l-1.3,3.3l3.9,2.2l2.2-2.8
		c1.3,0.4,2.6,0.7,4,0.7l1.1,3.3l4.4-0.8l-0.1-3.5c1.3-0.5,2.5-1.2,3.6-2.1l2.9,1.8l2.9-3.4l-2.2-2.5c0.7-1.2,1.1-2.6,1.4-4
		L406.4,499.8z M389.5,504.1c-3.5,0-6.4-2.9-6.4-6.4c0-3.5,2.9-6.4,6.4-6.4c3.5,0,6.4,2.9,6.4,6.4
		C395.9,501.2,393.1,504.1,389.5,504.1z"/>
	<g>
		<path class="st0" d="M402.1,379l-0.6,0.1c-0.9,0.1-1.8-0.4-2.1-1.2c-0.4-1.1,0.4-2.2,1.5-2.4l0.5-0.1c0.7-0.1,1.1-0.8,0.9-1.5
			c-0.1-0.3-0.2-0.7-0.3-1c-0.2-0.6-1-1-1.6-0.7l-0.5,0.2c-0.8,0.4-1.8,0.1-2.3-0.6c-0.7-1-0.3-2.3,0.8-2.7l0.5-0.2
			c0.6-0.3,0.9-1.1,0.5-1.7c-0.2-0.3-0.4-0.6-0.6-0.9c-0.4-0.6-1.2-0.7-1.7-0.2l-0.5,0.4c-0.8,0.7-1.9,0.6-2.6-0.2
			c-1,0-1.4-1.2-0.7-1.8l1.3-1.1c0.5-0.5,0.5-1.3,0-1.7c-0.3-0.2-0.5-0.4-0.8-0.7c-0.5-0.4-1.3-0.3-1.7,0.3l-0.3,0.5
			c-0.5,0.9-1.7,1.1-2.5,0.6c-0.9-0.5-1.1-1.7-0.6-2.5l0.3-0.4c0.4-0.6,0.1-1.4-0.5-1.7c-0.3-0.1-0.6-0.3-1-0.4
			c-0.6-0.3-1.4,0.1-1.5,0.7l-0.2,0.6c-0.3,1-1.3,1.5-2.3,1.3v0c-1-0.3-1.5-1.3-1.2-2.3l0.1-0.5c0.2-0.7-0.2-1.4-0.9-1.5
			c-0.3,0-0.7-0.1-1-0.1c-0.7-0.1-1.3,0.5-1.3,1.2v0.6c0,1-0.8,1.8-1.8,1.8l0,0c-1,0-1.8-0.8-1.8-1.8v-0.5c0-0.7-0.6-1.2-1.3-1.1
			c-0.3,0-0.7,0.1-1,0.2c-0.7,0.1-1.1,0.8-0.9,1.5l0.2,0.6c0.3,0.9-0.1,1.8-0.9,2.2c-1.1,0.5-2.3-0.1-2.6-1.1l-0.1-0.5
			c-0.2-0.7-0.9-1-1.6-0.7c-0.3,0.1-0.6,0.3-0.9,0.4c-0.6,0.3-0.8,1.1-0.5,1.7l0.3,0.5c0.5,0.9,0.3,2-0.6,2.5l0,0
			c-0.9,0.5-2,0.3-2.5-0.6l-0.3-0.4c-0.4-0.6-1.2-0.7-1.7-0.3c-0.3,0.2-0.5,0.5-0.8,0.7c-0.5,0.5-0.5,1.3,0,1.7l0.5,0.4
			c0.8,0.7,0.9,1.8,0.2,2.6c-0.7,0.8-1.8,0.9-2.6,0.2l-0.4-0.3c-0.5-0.5-1.3-0.3-1.7,0.2c-0.2,0.3-0.4,0.6-0.5,0.9
			c-0.3,0.6-0.1,1.4,0.5,1.6l0.6,0.3c0.9,0.4,1.3,1.5,0.9,2.4l0,0c-0.4,0.9-1.5,1.3-2.4,0.9l-0.5-0.2c-0.6-0.3-1.4,0-1.6,0.7
			c-0.1,0.3-0.2,0.7-0.3,1c-0.2,0.7,0.3,1.3,1,1.4l0.6,0.1c1,0.1,1.7,1.1,1.6,2.1c-0.1,1-1.1,1.7-2.1,1.6l-0.5-0.1
			c-0.7-0.1-1.3,0.4-1.3,1.1c0,0,0,0,0,0c0,0.3,0,0.7,0,1c0,0.7,0.6,1.2,1.3,1.1l0.6-0.1c1-0.1,1.9,0.6,2.1,1.6
			c0.1,1-0.6,1.9-1.6,2.1l-0.5,0.1c-0.7,0.1-1.1,0.8-0.9,1.5c0.1,0.3,0.2,0.7,0.3,1c0.2,0.6,1,1,1.6,0.7l0.6-0.3
			c0.9-0.4,2,0,2.4,0.9c0.4,0.9,0,2-0.9,2.4l-0.5,0.2c-0.6,0.3-0.9,1.1-0.5,1.7c0.2,0.3,0.4,0.6,0.6,0.9c0.4,0.6,1.2,0.7,1.7,0.2
			l0.5-0.4c0.8-0.7,1.9-0.6,2.6,0.2c1,0,1.4,1.2,0.7,1.8l-1.3,1.1c-0.5,0.5-0.5,1.3,0,1.7c0.3,0.2,0.5,0.4,0.8,0.7
			c0.5,0.4,1.3,0.3,1.7-0.3l0.3-0.5c0.5-0.8,1.5-1.1,2.3-0.7c1.1,0.5,1.4,1.8,0.8,2.7l-0.3,0.4c-0.4,0.6-0.2,1.4,0.5,1.7
			c0.3,0.1,0.6,0.3,1,0.4c0.6,0.3,1.4-0.1,1.5-0.7l0.2-0.6c0.3-0.9,1.1-1.5,2-1.4c1.2,0.1,1.9,1.3,1.6,2.4l-0.1,0.5
			c-0.2,0.7,0.2,1.4,0.9,1.5c0.3,0,0.7,0.1,1,0.1c0.7,0.1,1.3-0.5,1.3-1.2v-0.6c0-1,0.8-1.8,1.8-1.8c1,0,1.8,0.8,1.8,1.8v0.5
			c0,0.7,0.6,1.2,1.3,1.1c0.3-0.1,0.7-0.1,1-0.2c0.7-0.1,1.1-0.8,0.9-1.5l-0.2-0.6c-0.3-0.9,0.1-1.8,0.9-2.2
			c1.1-0.5,2.3,0.1,2.6,1.1l0.1,0.5c0.2,0.7,1,1,1.6,0.7c0.3-0.1,0.6-0.3,0.9-0.5c0.6-0.3,0.8-1.1,0.5-1.7l-0.3-0.5
			c-0.5-0.8-0.4-1.8,0.3-2.4c0.9-0.8,2.2-0.6,2.8,0.4l0.3,0.4c0.4,0.6,1.2,0.7,1.7,0.3c0.3-0.2,0.5-0.5,0.8-0.7
			c0.5-0.5,0.5-1.3,0-1.7l-0.4-0.4c-0.7-0.6-0.9-1.6-0.4-2.4c0.6-1,1.9-1.2,2.8-0.4l0.4,0.3c0.5,0.5,1.3,0.3,1.7-0.2
			c0.2-0.3,0.4-0.6,0.5-0.9c0.3-0.6,0.1-1.4-0.5-1.6l-0.6-0.3c-0.9-0.4-1.3-1.5-0.9-2.4c0-0.9,1-1.6,1.8-1.2l1.1,0.5
			c0.6,0.3,1.4,0,1.6-0.7c0.1-0.3,0.2-0.7,0.3-1c0.2-0.7-0.3-1.3-1-1.4l-0.6-0.1c-1.1-0.2-1.8-1.3-1.5-2.4c0.3-0.9,1.2-1.4,2.1-1.2
			l0.4,0.1c0.7,0.1,1.3-0.4,1.3-1.1c0,0,0,0,0,0c0-0.3,0-0.7,0-1C403.4,379.4,402.8,378.9,402.1,379z M378.9,363.6
			c4.1,0.3,7.8,1.9,10.6,4.5l-4.2,4.2c-1.8-1.5-3.9-2.5-6.4-2.7V363.6z M376.5,363.6v6c-2.4,0.2-4.6,1.2-6.4,2.7l-4.2-4.2
			C368.8,365.6,372.5,363.9,376.5,363.6z M364.3,369.9l4.2,4.2c-1.4,1.8-2.2,4-2.4,6.3h-6C360.3,376.4,361.8,372.7,364.3,369.9z
			 M364.7,393c-2.5-2.7-4.1-6.3-4.5-10.2h6c0.3,2.2,1.3,4.3,2.7,5.9L364.7,393z M376.5,398.7c-3.8-0.3-7.4-1.8-10.1-4.1l4.2-4.2
			c1.7,1.3,3.7,2.1,5.9,2.3V398.7z M377.7,390.7c-5.3,0-9.5-4.3-9.5-9.5c0-5.3,4.3-9.5,9.5-9.5c5.3,0,9.5,4.3,9.5,9.5
			C387.3,386.5,383,390.7,377.7,390.7z M378.9,398.7v-6c2.2-0.2,4.2-1.1,5.9-2.3l4.2,4.2C386.3,397,382.8,398.5,378.9,398.7z
			 M390.8,393l-4.2-4.2c1.4-1.6,2.4-3.7,2.7-5.9h6C394.9,386.7,393.3,390.2,390.8,393z M389.3,380.4c-0.2-2.4-1-4.6-2.4-6.3l4.2-4.2
			c2.4,2.9,3.9,6.5,4.1,10.6H389.3z"/>
	</g>
	<g>
		<path class="st0" d="M488.9,364.1l-0.3,0c-0.5,0.1-0.9-0.2-1.1-0.6c-0.2-0.6,0.2-1.2,0.8-1.2l0.3,0c0.4-0.1,0.6-0.4,0.5-0.8
			c-0.1-0.2-0.1-0.3-0.2-0.5c-0.1-0.3-0.5-0.5-0.8-0.4l-0.3,0.1c-0.4,0.2-0.9,0.1-1.2-0.3c-0.3-0.5-0.1-1.2,0.4-1.4l0.2-0.1
			c0.3-0.2,0.5-0.6,0.3-0.9c-0.1-0.2-0.2-0.3-0.3-0.4c-0.2-0.3-0.6-0.3-0.9-0.1l-0.2,0.2c-0.4,0.3-1,0.3-1.3-0.1
			c-0.5,0-0.7-0.6-0.4-1l0.6-0.6c0.3-0.2,0.3-0.7,0-0.9c-0.1-0.1-0.3-0.2-0.4-0.3c-0.3-0.2-0.7-0.2-0.9,0.1l-0.2,0.3
			c-0.3,0.4-0.9,0.6-1.3,0.3c-0.4-0.3-0.6-0.9-0.3-1.3l0.1-0.2c0.2-0.3,0.1-0.7-0.3-0.9c-0.2-0.1-0.3-0.1-0.5-0.2
			c-0.3-0.1-0.7,0-0.8,0.4l-0.1,0.3c-0.1,0.5-0.7,0.8-1.2,0.6v0c-0.5-0.1-0.8-0.7-0.6-1.2l0.1-0.3c0.1-0.3-0.1-0.7-0.5-0.8
			c-0.2,0-0.4,0-0.5-0.1c-0.4,0-0.7,0.2-0.7,0.6v0.3c0,0.5-0.4,1-1,1l0,0c-0.5,0-1-0.4-1-1v-0.3c0-0.4-0.3-0.6-0.7-0.6
			c-0.2,0-0.4,0.1-0.5,0.1c-0.3,0.1-0.6,0.4-0.5,0.8l0.1,0.3c0.1,0.4-0.1,0.9-0.5,1.1c-0.5,0.3-1.2,0-1.3-0.6l-0.1-0.3
			c-0.1-0.3-0.5-0.5-0.8-0.4c-0.2,0.1-0.3,0.2-0.5,0.2c-0.3,0.2-0.4,0.6-0.2,0.9l0.2,0.3c0.3,0.4,0.2,1-0.3,1.3l0,0
			c-0.4,0.3-1,0.2-1.3-0.3l-0.1-0.2c-0.2-0.3-0.6-0.4-0.9-0.1c-0.1,0.1-0.3,0.2-0.4,0.4c-0.3,0.2-0.3,0.7,0,0.9l0.2,0.2
			c0.4,0.3,0.4,0.9,0.1,1.3c-0.3,0.4-0.9,0.4-1.3,0.1l-0.2-0.2c-0.3-0.2-0.7-0.2-0.9,0.1c-0.1,0.1-0.2,0.3-0.3,0.5
			c-0.2,0.3-0.1,0.7,0.3,0.8l0.3,0.1c0.5,0.2,0.7,0.8,0.5,1.3l0,0c-0.2,0.5-0.8,0.7-1.3,0.5l-0.2-0.1c-0.3-0.2-0.7,0-0.8,0.4
			c0,0.2-0.1,0.3-0.1,0.5c-0.1,0.3,0.1,0.7,0.5,0.7l0.3,0c0.5,0.1,0.9,0.6,0.8,1.1c-0.1,0.5-0.6,0.9-1.1,0.8l-0.3,0
			c-0.4-0.1-0.7,0.2-0.7,0.6c0,0,0,0,0,0c0,0.2,0,0.4,0,0.5c0,0.4,0.3,0.6,0.7,0.6l0.3,0c0.5-0.1,1,0.3,1.1,0.8
			c0.1,0.5-0.3,1-0.8,1.1l-0.3,0c-0.4,0.1-0.6,0.4-0.5,0.8c0,0.2,0.1,0.3,0.2,0.5c0.1,0.3,0.5,0.5,0.8,0.4l0.3-0.1
			c0.5-0.2,1,0,1.3,0.5c0.2,0.5,0,1-0.5,1.3l-0.2,0.1c-0.3,0.2-0.5,0.6-0.3,0.9c0.1,0.1,0.2,0.3,0.3,0.4c0.2,0.3,0.6,0.3,0.9,0.1
			l0.2-0.2c0.4-0.3,1-0.3,1.3,0.1c0.5,0,0.7,0.6,0.4,1l-0.6,0.6c-0.3,0.2-0.3,0.7,0,0.9c0.1,0.1,0.3,0.2,0.4,0.3
			c0.3,0.2,0.7,0.2,0.9-0.1l0.2-0.2c0.3-0.4,0.8-0.6,1.2-0.4c0.6,0.2,0.7,0.9,0.4,1.4l-0.1,0.2c-0.2,0.3-0.1,0.7,0.3,0.9
			c0.2,0.1,0.3,0.1,0.5,0.2c0.3,0.1,0.7,0,0.8-0.4l0.1-0.3c0.1-0.4,0.6-0.8,1-0.7c0.6,0.1,1,0.7,0.8,1.2l-0.1,0.3
			c-0.1,0.3,0.1,0.7,0.5,0.8c0.2,0,0.4,0,0.5,0.1c0.4,0,0.7-0.2,0.7-0.6v-0.3c0-0.5,0.4-1,1-1c0.5,0,1,0.4,1,1v0.3
			c0,0.4,0.3,0.6,0.7,0.6c0.2,0,0.4-0.1,0.5-0.1c0.3-0.1,0.6-0.4,0.5-0.8l-0.1-0.3c-0.1-0.4,0.1-0.9,0.5-1.1c0.5-0.3,1.2,0,1.3,0.6
			l0.1,0.3c0.1,0.3,0.5,0.5,0.8,0.4c0.2-0.1,0.3-0.2,0.5-0.2c0.3-0.2,0.4-0.6,0.2-0.9l-0.2-0.3c-0.3-0.4-0.2-0.9,0.1-1.2
			c0.4-0.4,1.1-0.3,1.4,0.2l0.1,0.2c0.2,0.3,0.6,0.4,0.9,0.1c0.1-0.1,0.3-0.2,0.4-0.4c0.3-0.2,0.3-0.7,0-0.9l-0.2-0.2
			c-0.4-0.3-0.5-0.8-0.2-1.2c0.3-0.5,1-0.6,1.4-0.2l0.2,0.2c0.3,0.2,0.7,0.2,0.9-0.1c0.1-0.1,0.2-0.3,0.3-0.5
			c0.2-0.3,0.1-0.7-0.3-0.8l-0.3-0.1c-0.5-0.2-0.7-0.8-0.5-1.3c0-0.5,0.5-0.8,1-0.6l0.5,0.3c0.3,0.2,0.7,0,0.8-0.4
			c0-0.2,0.1-0.3,0.1-0.5c0.1-0.3-0.1-0.7-0.5-0.7l-0.3,0c-0.6-0.1-1-0.7-0.8-1.2c0.1-0.4,0.6-0.7,1.1-0.6l0.2,0
			c0.4,0.1,0.7-0.2,0.7-0.6c0,0,0,0,0,0c0-0.2,0-0.4,0-0.5C489.6,364.4,489.2,364.1,488.9,364.1z M476.9,356.2c2.1,0.1,4,1,5.5,2.3
			l-2.2,2.2c-0.9-0.8-2-1.3-3.3-1.4V356.2z M475.7,356.2v3.1c-1.3,0.1-2.4,0.6-3.3,1.4l-2.2-2.2
			C471.7,357.2,473.6,356.3,475.7,356.2z M469.4,359.4l2.2,2.2c-0.7,0.9-1.2,2-1.2,3.3h-3.1C467.3,362.8,468.1,360.9,469.4,359.4z
			 M469.6,371.4c-1.3-1.4-2.1-3.2-2.3-5.2h3.1c0.2,1.2,0.7,2.2,1.4,3.1L469.6,371.4z M475.7,374.3c-2-0.1-3.8-0.9-5.2-2.1l2.2-2.2
			c0.9,0.7,1.9,1.1,3,1.2V374.3z M476.3,370.2c-2.7,0-4.9-2.2-4.9-4.9c0-2.7,2.2-4.9,4.9-4.9c2.7,0,4.9,2.2,4.9,4.9
			C481.3,368,479,370.2,476.3,370.2z M476.9,374.3v-3.1c1.1-0.1,2.2-0.6,3-1.2l2.2,2.2C480.7,373.4,478.9,374.2,476.9,374.3z
			 M483.1,371.4l-2.2-2.2c0.7-0.8,1.2-1.9,1.4-3.1h3.1C485.2,368.1,484.3,369.9,483.1,371.4z M482.3,364.9c-0.1-1.2-0.5-2.4-1.2-3.3
			l2.2-2.2c1.3,1.5,2,3.4,2.1,5.5H482.3z"/>
	</g>
	<path class="st0" d="M372.4,505c0-0.3-0.3-0.5-0.5-0.4l-0.2,0c-0.3,0.1-0.7-0.1-0.8-0.5c-0.1-0.4,0.1-0.9,0.6-0.9l0.2,0
		c0.3,0,0.4-0.3,0.4-0.6c0-0.1-0.1-0.3-0.1-0.4c-0.1-0.3-0.4-0.4-0.6-0.3L371,502c-0.3,0.1-0.7,0.1-0.9-0.2
		c-0.3-0.4-0.1-0.9,0.3-1.1l0.2-0.1c0.3-0.1,0.3-0.4,0.2-0.6c-0.1-0.1-0.1-0.2-0.2-0.3c-0.2-0.2-0.5-0.3-0.7-0.1l-0.2,0.2
		c-0.3,0.3-0.8,0.2-1-0.1l0,0c-0.4,0-0.6-0.5-0.3-0.7l0.5-0.4c0.2-0.2,0.2-0.5,0-0.7c-0.1-0.1-0.2-0.2-0.3-0.3
		c-0.2-0.2-0.5-0.1-0.7,0.1l-0.1,0.2c-0.2,0.3-0.7,0.4-1,0.2c-0.3-0.2-0.4-0.7-0.2-1l0.1-0.2c0.1-0.2,0.1-0.5-0.2-0.6
		c-0.1-0.1-0.2-0.1-0.4-0.2c-0.2-0.1-0.5,0-0.6,0.3l-0.1,0.2c-0.1,0.4-0.5,0.6-0.9,0.5l0,0c-0.4-0.1-0.6-0.5-0.5-0.9l0.1-0.2
		c0.1-0.3-0.1-0.5-0.4-0.6c-0.1,0-0.3,0-0.4,0c-0.3,0-0.5,0.2-0.5,0.4v0.2c0,0.4-0.3,0.7-0.7,0.7l0,0c-0.4,0-0.7-0.3-0.7-0.7V496
		c0-0.3-0.2-0.5-0.5-0.4c-0.1,0-0.3,0-0.4,0.1c-0.3,0-0.4,0.3-0.4,0.6l0.1,0.2c0.1,0.3,0,0.7-0.4,0.9c-0.4,0.2-0.9,0-1-0.4l-0.1-0.2
		c-0.1-0.3-0.4-0.4-0.6-0.3c-0.1,0.1-0.2,0.1-0.4,0.2c-0.2,0.1-0.3,0.4-0.2,0.6l0.1,0.2c0.2,0.3,0.1,0.8-0.2,1l0,0
		c-0.3,0.2-0.8,0.1-1-0.2l-0.1-0.2c-0.1-0.2-0.5-0.3-0.7-0.1c-0.1,0.1-0.2,0.2-0.3,0.3c-0.2,0.2-0.2,0.5,0,0.7l0.2,0.2
		c0.3,0.3,0.3,0.7,0.1,1c-0.3,0.3-0.7,0.3-1,0.1l-0.1-0.1c-0.2-0.2-0.5-0.1-0.7,0.1c-0.1,0.1-0.1,0.2-0.2,0.3
		c-0.1,0.2,0,0.5,0.2,0.6l0.2,0.1c0.4,0.2,0.5,0.6,0.4,0.9l0,0c-0.2,0.4-0.6,0.5-1,0.4l-0.2-0.1c-0.3-0.1-0.5,0-0.6,0.3
		c0,0.1-0.1,0.3-0.1,0.4c-0.1,0.3,0.1,0.5,0.4,0.6l0.2,0c0.4,0.1,0.7,0.4,0.6,0.8c-0.1,0.4-0.4,0.7-0.8,0.6l-0.2,0
		c-0.3,0-0.5,0.2-0.5,0.4c0,0,0,0,0,0c0,0.1,0,0.3,0,0.4c0,0.3,0.3,0.5,0.5,0.4l0.2,0c0.4-0.1,0.8,0.2,0.8,0.6
		c0.1,0.4-0.2,0.8-0.6,0.8l-0.2,0c-0.3,0-0.4,0.3-0.4,0.6c0,0.1,0.1,0.3,0.1,0.4c0.1,0.3,0.4,0.4,0.6,0.3l0.2-0.1
		c0.4-0.2,0.8,0,1,0.4c0.2,0.4,0,0.8-0.4,0.9l-0.2,0.1c-0.3,0.1-0.3,0.4-0.2,0.7c0.1,0.1,0.1,0.2,0.2,0.3c0.2,0.2,0.5,0.3,0.7,0.1
		l0.2-0.2c0.3-0.3,0.8-0.2,1,0.1l0,0c0.4,0,0.6,0.5,0.3,0.7l-0.5,0.4c-0.2,0.2-0.2,0.5,0,0.7c0.1,0.1,0.2,0.2,0.3,0.3
		c0.2,0.2,0.5,0.1,0.7-0.1l0.1-0.2c0.2-0.3,0.6-0.4,0.9-0.3c0.4,0.2,0.6,0.7,0.3,1l-0.1,0.2c-0.1,0.2-0.1,0.5,0.2,0.7
		c0.1,0.1,0.2,0.1,0.4,0.2c0.2,0.1,0.5,0,0.6-0.3l0.1-0.2c0.1-0.3,0.4-0.6,0.8-0.5c0.5,0,0.7,0.5,0.6,0.9l-0.1,0.2
		c-0.1,0.3,0.1,0.5,0.4,0.6c0.1,0,0.3,0,0.4,0c0.3,0,0.5-0.2,0.5-0.4v-0.2c0-0.4,0.3-0.7,0.7-0.7l0,0c0.4,0,0.7,0.3,0.7,0.7v0.2
		c0,0.3,0.2,0.5,0.5,0.4c0.1,0,0.3,0,0.4-0.1c0.3,0,0.4-0.3,0.4-0.6l-0.1-0.2c-0.1-0.3,0-0.7,0.4-0.9c0.4-0.2,0.9,0,1,0.4l0.1,0.2
		c0.1,0.3,0.4,0.4,0.6,0.3c0.1-0.1,0.2-0.1,0.4-0.2c0.2-0.1,0.3-0.4,0.2-0.6l-0.1-0.2c-0.2-0.3-0.2-0.7,0.1-0.9
		c0.3-0.3,0.9-0.2,1.1,0.1l0.1,0.2c0.1,0.2,0.5,0.3,0.7,0.1c0.1-0.1,0.2-0.2,0.3-0.3c0.2-0.2,0.2-0.5,0-0.7l-0.2-0.1
		c-0.3-0.2-0.3-0.6-0.2-0.9c0.2-0.4,0.8-0.5,1.1-0.2l0.1,0.1c0.2,0.2,0.5,0.1,0.7-0.1c0.1-0.1,0.1-0.2,0.2-0.3
		c0.1-0.2,0-0.5-0.2-0.6l-0.2-0.1c-0.4-0.2-0.5-0.6-0.4-0.9c0-0.4,0.4-0.6,0.7-0.5l0.4,0.2c0.2,0.1,0.5,0,0.6-0.3
		c0-0.1,0.1-0.3,0.1-0.4c0.1-0.3-0.1-0.5-0.4-0.6l-0.2,0c-0.4-0.1-0.7-0.5-0.6-0.9c0.1-0.3,0.5-0.5,0.8-0.5l0.2,0
		c0.3,0,0.5-0.2,0.5-0.4v0C372.4,505.2,372.4,505.1,372.4,505z M363.6,507.6l-0.8-1.9l1.9,0.8C364.5,506.9,364.1,507.3,363.6,507.6z
		 M364.7,504l-1.9,0.8l0.8-1.9C364,503.2,364.4,503.6,364.7,504z M362.9,505.3l1.9-0.8c0.1,0.3,0.1,0.5,0.1,0.8c0,0.3,0,0.5-0.1,0.8
		L362.9,505.3z M368.5,505.3c0,0.4-0.3,0.6-0.6,0.6c-0.4,0-0.6-0.3-0.6-0.6c0-0.4,0.3-0.6,0.6-0.6
		C368.2,504.7,368.5,505,368.5,505.3z M365.8,501c0.3-0.3,0.7-0.3,0.9,0c0.3,0.3,0.3,0.7,0,0.9c-0.2,0.3-0.7,0.3-0.9,0
		C365.5,501.7,365.5,501.3,365.8,501z M362.4,499.3c0.4,0,0.6,0.3,0.6,0.6c0,0.4-0.3,0.6-0.6,0.6c-0.4,0-0.6-0.3-0.6-0.6
		C361.7,499.5,362,499.3,362.4,499.3z M362.4,502.7c0.3,0,0.5,0,0.8,0.1l-0.8,1.9l-0.8-1.9C361.8,502.7,362.1,502.7,362.4,502.7z
		 M360.1,506.5l1.9-0.8l-0.8,1.9C360.7,507.4,360.3,507,360.1,506.5z M356.9,504.8c0.4,0,0.6,0.3,0.6,0.6c0,0.4-0.3,0.6-0.6,0.6
		c-0.4,0-0.6-0.3-0.6-0.6C356.3,505.1,356.6,504.8,356.9,504.8z M359.8,505.3c0-0.3,0-0.5,0.1-0.8l1.9,0.8l-1.9,0.8
		C359.8,505.8,359.8,505.6,359.8,505.3z M361.2,503l0.8,1.9l-2-0.8C360.3,503.6,360.7,503.2,361.2,503z M358.1,501.1
		c0.2-0.2,0.7-0.2,0.9,0c0.2,0.3,0.2,0.7,0,0.9c-0.3,0.3-0.7,0.3-0.9,0C357.8,501.7,357.8,501.3,358.1,501.1z M359,509.7
		c-0.3,0.3-0.7,0.3-0.9,0c-0.3-0.3-0.3-0.7,0-0.9c0.3-0.3,0.7-0.3,0.9,0C359.3,509.1,359.3,509.5,359,509.7z M362.5,511.5
		c-0.4,0-0.6-0.3-0.6-0.6c0-0.4,0.3-0.6,0.6-0.6c0.4,0,0.6,0.3,0.6,0.6C363.1,511.2,362.8,511.5,362.5,511.5z M362.4,507.9
		c-0.3,0-0.5,0-0.8-0.1l0.8-1.9l0.8,1.9C363,507.8,362.7,507.9,362.4,507.9z M366.8,509.7c-0.2,0.2-0.7,0.2-0.9,0
		c-0.3-0.3-0.3-0.7,0-0.9c0.2-0.3,0.7-0.3,0.9,0C367,509,367,509.4,366.8,509.7z"/>
	<path class="st0" d="M489.1,435.7c0-0.3-0.3-0.6-0.6-0.5l-0.3,0c-0.4,0.1-0.9-0.2-1-0.6c-0.2-0.5,0.2-1.1,0.7-1.2l0.2,0
		c0.3,0,0.6-0.4,0.5-0.7c0-0.2-0.1-0.3-0.2-0.5c-0.1-0.3-0.5-0.5-0.8-0.3l-0.3,0.1c-0.4,0.2-0.9,0.1-1.1-0.3
		c-0.3-0.5-0.1-1.1,0.4-1.3l0.2-0.1c0.3-0.1,0.4-0.5,0.2-0.8c-0.1-0.1-0.2-0.3-0.3-0.4c-0.2-0.3-0.6-0.3-0.8-0.1l-0.2,0.2
		c-0.4,0.3-0.9,0.3-1.3-0.1l0,0c-0.5,0-0.7-0.6-0.3-0.9l0.6-0.5c0.3-0.2,0.3-0.6,0-0.8c-0.1-0.1-0.3-0.2-0.4-0.3
		c-0.3-0.2-0.6-0.1-0.8,0.1l-0.2,0.3c-0.3,0.4-0.8,0.5-1.2,0.3c-0.4-0.3-0.5-0.8-0.3-1.2l0.1-0.2c0.2-0.3,0.1-0.7-0.2-0.8
		c-0.2-0.1-0.3-0.1-0.5-0.2c-0.3-0.1-0.7,0-0.8,0.4l-0.1,0.3c-0.1,0.5-0.6,0.7-1.1,0.6l0,0c-0.5-0.1-0.8-0.6-0.6-1.1l0.1-0.2
		c0.1-0.3-0.1-0.7-0.5-0.7c-0.2,0-0.3,0-0.5-0.1c-0.3,0-0.6,0.2-0.6,0.6v0.3c0,0.5-0.4,0.9-0.9,0.9l0,0c-0.5,0-0.9-0.4-0.9-0.9v-0.2
		c0-0.3-0.3-0.6-0.6-0.6c-0.2,0-0.3,0.1-0.5,0.1c-0.3,0.1-0.5,0.4-0.4,0.7l0.1,0.3c0.1,0.4-0.1,0.9-0.5,1.1c-0.5,0.3-1.1,0-1.3-0.6
		l-0.1-0.2c-0.1-0.3-0.5-0.5-0.8-0.4c-0.2,0.1-0.3,0.1-0.5,0.2c-0.3,0.2-0.4,0.5-0.2,0.8l0.2,0.3c0.3,0.4,0.1,1-0.3,1.2l0,0
		c-0.4,0.3-1,0.1-1.2-0.3l-0.1-0.2c-0.2-0.3-0.6-0.3-0.8-0.1c-0.1,0.1-0.3,0.2-0.4,0.3c-0.2,0.2-0.2,0.6,0,0.8l0.2,0.2
		c0.4,0.3,0.4,0.9,0.1,1.3c-0.3,0.4-0.9,0.4-1.3,0.1l-0.2-0.2c-0.3-0.2-0.7-0.2-0.8,0.1c-0.1,0.1-0.2,0.3-0.3,0.4
		c-0.2,0.3-0.1,0.7,0.3,0.8l0.3,0.1c0.5,0.2,0.7,0.7,0.4,1.2l0,0c-0.2,0.4-0.7,0.6-1.2,0.4l-0.2-0.1c-0.3-0.1-0.7,0-0.8,0.4
		c0,0.2-0.1,0.3-0.1,0.5c-0.1,0.3,0.1,0.6,0.5,0.7l0.3,0c0.5,0.1,0.8,0.5,0.8,1c-0.1,0.5-0.5,0.8-1,0.8l-0.2,0
		c-0.3,0-0.6,0.2-0.6,0.6c0,0,0,0,0,0c0,0.2,0,0.3,0,0.5c0,0.3,0.3,0.6,0.6,0.5l0.3,0c0.5-0.1,1,0.3,1,0.8c0.1,0.5-0.3,0.9-0.8,1
		l-0.2,0c-0.3,0-0.6,0.4-0.5,0.7c0,0.2,0.1,0.3,0.2,0.5c0.1,0.3,0.5,0.5,0.8,0.3l0.3-0.1c0.5-0.2,1,0,1.2,0.4c0.2,0.4,0,1-0.4,1.2
		l-0.2,0.1c-0.3,0.1-0.4,0.5-0.2,0.8c0.1,0.1,0.2,0.3,0.3,0.4c0.2,0.3,0.6,0.3,0.8,0.1l0.2-0.2c0.4-0.3,0.9-0.3,1.3,0.1l0,0
		c0.5,0,0.7,0.6,0.3,0.9l-0.6,0.5c-0.3,0.2-0.3,0.6,0,0.8c0.1,0.1,0.3,0.2,0.4,0.3c0.3,0.2,0.6,0.1,0.8-0.1l0.2-0.2
		c0.2-0.4,0.7-0.5,1.1-0.4c0.5,0.2,0.7,0.9,0.4,1.3l-0.1,0.2c-0.2,0.3-0.1,0.7,0.2,0.8c0.2,0.1,0.3,0.1,0.5,0.2
		c0.3,0.1,0.7,0,0.8-0.4l0.1-0.3c0.1-0.4,0.5-0.7,1-0.7c0.6,0.1,0.9,0.6,0.8,1.1l-0.1,0.2c-0.1,0.3,0.1,0.7,0.5,0.7
		c0.2,0,0.3,0,0.5,0.1c0.3,0,0.6-0.2,0.6-0.6v-0.3c0-0.5,0.4-0.9,0.9-0.9l0,0c0.5,0,0.9,0.4,0.9,0.9v0.2c0,0.3,0.3,0.6,0.6,0.6
		c0.2,0,0.3-0.1,0.5-0.1c0.3-0.1,0.5-0.4,0.4-0.7l-0.1-0.3c-0.1-0.4,0.1-0.9,0.5-1.1c0.5-0.2,1.1,0,1.3,0.6l0.1,0.2
		c0.1,0.3,0.5,0.5,0.8,0.4c0.2-0.1,0.3-0.1,0.5-0.2c0.3-0.2,0.4-0.5,0.2-0.8l-0.2-0.2c-0.2-0.4-0.2-0.9,0.1-1.2
		c0.4-0.4,1.1-0.3,1.4,0.2l0.1,0.2c0.2,0.3,0.6,0.3,0.8,0.1c0.1-0.1,0.3-0.2,0.4-0.3c0.2-0.2,0.2-0.6,0-0.8l-0.2-0.2
		c-0.3-0.3-0.4-0.8-0.2-1.2c0.3-0.5,1-0.6,1.4-0.2l0.2,0.2c0.3,0.2,0.7,0.2,0.8-0.1c0.1-0.1,0.2-0.3,0.3-0.4
		c0.2-0.3,0.1-0.7-0.3-0.8l-0.3-0.1c-0.5-0.2-0.7-0.7-0.4-1.2c0-0.5,0.5-0.8,0.9-0.6l0.5,0.2c0.3,0.1,0.7,0,0.8-0.4
		c0-0.2,0.1-0.3,0.1-0.5c0.1-0.3-0.1-0.6-0.5-0.7l-0.3,0c-0.5-0.1-0.9-0.6-0.7-1.2c0.1-0.4,0.6-0.7,1-0.6l0.2,0
		c0.3,0,0.6-0.2,0.6-0.6c0,0,0,0,0,0C489.1,436,489.1,435.8,489.1,435.7z M478.1,438.9l-1-2.4l2.4,1
		C479.2,438.1,478.7,438.6,478.1,438.9z M479.5,434.5l-2.4,1l1-2.4C478.7,433.4,479.2,433.9,479.5,434.5z M477.3,436.1l2.4-1
		c0.1,0.3,0.2,0.7,0.2,1.1c0,0.3,0,0.7-0.1,1L477.3,436.1z M484.3,436.1c0,0.4-0.4,0.8-0.8,0.8c-0.4,0-0.8-0.4-0.8-0.8
		c0-0.4,0.4-0.8,0.8-0.8C484,435.3,484.3,435.7,484.3,436.1z M480.9,430.7c0.3-0.3,0.8-0.3,1.1,0c0.3,0.3,0.3,0.8,0,1.1
		c-0.3,0.3-0.8,0.3-1.1,0C480.6,431.5,480.6,431,480.9,430.7z M476.6,428.5c0.4,0,0.8,0.4,0.8,0.8c0,0.4-0.4,0.8-0.8,0.8
		c-0.4,0-0.8-0.4-0.8-0.8C475.8,428.9,476.1,428.5,476.6,428.5z M476.6,432.8c0.3,0,0.7,0,1,0.1l-1,2.4l-1-2.4
		C475.9,432.9,476.2,432.8,476.6,432.8z M473.7,437.6l2.4-1l-1,2.4C474.5,438.7,474,438.2,473.7,437.6z M469.8,435.5
		c0.4,0,0.8,0.4,0.8,0.8c0,0.4-0.4,0.8-0.8,0.8c-0.4,0-0.8-0.4-0.8-0.8C469,435.8,469.3,435.5,469.8,435.5z M473.3,436.1
		c0-0.3,0.1-0.7,0.1-1l2.4,1l-2.4,1C473.4,436.8,473.3,436.4,473.3,436.1z M475.1,433.2l1,2.4l-2.4-1
		C474,434,474.5,433.5,475.1,433.2z M471.2,430.8c0.3-0.3,0.8-0.3,1.1,0c0.3,0.3,0.3,0.8,0,1.1c-0.3,0.3-0.8,0.3-1.1,0
		C470.9,431.6,470.9,431.1,471.2,430.8z M472.4,441.7c-0.3,0.3-0.8,0.3-1.1,0c-0.3-0.3-0.3-0.8,0-1.1c0.3-0.3,0.8-0.3,1.1,0
		C472.7,440.9,472.7,441.4,472.4,441.7z M476.7,443.9c-0.4,0-0.8-0.4-0.8-0.8c0-0.4,0.4-0.8,0.8-0.8c0.4,0,0.8,0.4,0.8,0.8
		C477.5,443.5,477.2,443.9,476.7,443.9z M476.6,439.3c-0.3,0-0.7,0-1-0.1l1-2.4l1,2.4C477.3,439.3,477,439.3,476.6,439.3z
		 M482.1,441.6c-0.3,0.3-0.8,0.3-1.1,0c-0.3-0.3-0.3-0.8,0-1.1c0.3-0.3,0.8-0.3,1.1,0C482.4,440.8,482.4,441.3,482.1,441.6z"/>
	<path class="st0" d="M467.5,383.8c0-0.3-0.3-0.5-0.5-0.4l-0.2,0c-0.4,0.1-0.7-0.2-0.8-0.5c-0.1-0.4,0.2-0.9,0.6-1l0.2,0
		c0.3,0,0.5-0.3,0.4-0.6c0-0.1-0.1-0.3-0.1-0.4c-0.1-0.3-0.4-0.4-0.6-0.3l-0.2,0.1c-0.3,0.2-0.7,0.1-0.9-0.2
		c-0.3-0.4-0.1-0.9,0.3-1.1l0.2-0.1c0.3-0.1,0.4-0.4,0.2-0.7c-0.1-0.1-0.2-0.2-0.2-0.3c-0.2-0.2-0.5-0.3-0.7-0.1l-0.2,0.2
		c-0.3,0.3-0.8,0.2-1.1-0.1l0,0c-0.4,0-0.6-0.5-0.3-0.7l0.5-0.4c0.2-0.2,0.2-0.5,0-0.7c-0.1-0.1-0.2-0.2-0.3-0.3
		c-0.2-0.2-0.5-0.1-0.7,0.1l-0.1,0.2c-0.2,0.3-0.7,0.4-1,0.2c-0.3-0.2-0.4-0.7-0.2-1l0.1-0.2c0.2-0.2,0.1-0.6-0.2-0.7
		c-0.1-0.1-0.3-0.1-0.4-0.2c-0.3-0.1-0.5,0-0.6,0.3l-0.1,0.2c-0.1,0.4-0.5,0.6-0.9,0.5l0,0c-0.4-0.1-0.6-0.5-0.5-0.9l0.1-0.2
		c0.1-0.3-0.1-0.6-0.4-0.6c-0.1,0-0.3,0-0.4,0c-0.3,0-0.5,0.2-0.5,0.5v0.2c0,0.4-0.3,0.7-0.7,0.7l0,0c-0.4,0-0.7-0.3-0.7-0.7v-0.2
		c0-0.3-0.3-0.5-0.5-0.5c-0.1,0-0.3,0-0.4,0.1c-0.3,0-0.4,0.3-0.4,0.6l0.1,0.2c0.1,0.3-0.1,0.7-0.4,0.9c-0.4,0.2-0.9,0-1-0.5
		l-0.1-0.2c-0.1-0.3-0.4-0.4-0.6-0.3c-0.1,0.1-0.3,0.1-0.4,0.2c-0.2,0.1-0.3,0.4-0.2,0.7l0.1,0.2c0.2,0.3,0.1,0.8-0.2,1l0,0
		c-0.3,0.2-0.8,0.1-1-0.2l-0.1-0.2c-0.2-0.2-0.5-0.3-0.7-0.1c-0.1,0.1-0.2,0.2-0.3,0.3c-0.2,0.2-0.2,0.5,0,0.7l0.2,0.2
		c0.3,0.3,0.3,0.7,0.1,1c-0.3,0.3-0.7,0.3-1.1,0.1l-0.2-0.1c-0.2-0.2-0.5-0.1-0.7,0.1c-0.1,0.1-0.1,0.2-0.2,0.4
		c-0.1,0.2,0,0.5,0.2,0.7l0.2,0.1c0.4,0.2,0.5,0.6,0.4,1l0,0c-0.2,0.4-0.6,0.5-1,0.4l-0.2-0.1c-0.3-0.1-0.6,0-0.6,0.3
		c0,0.1-0.1,0.3-0.1,0.4c-0.1,0.3,0.1,0.5,0.4,0.6l0.3,0c0.4,0.1,0.7,0.4,0.6,0.8c-0.1,0.4-0.4,0.7-0.8,0.6l-0.2,0
		c-0.3,0-0.5,0.2-0.5,0.5c0,0,0,0,0,0c0,0.1,0,0.3,0,0.4c0,0.3,0.3,0.5,0.5,0.4l0.2,0c0.4-0.1,0.8,0.2,0.8,0.6
		c0.1,0.4-0.2,0.8-0.6,0.8l-0.2,0c-0.3,0-0.5,0.3-0.4,0.6c0,0.1,0.1,0.3,0.1,0.4c0.1,0.3,0.4,0.4,0.6,0.3l0.2-0.1
		c0.4-0.2,0.8,0,1,0.4c0.2,0.4,0,0.8-0.4,1l-0.2,0.1c-0.3,0.1-0.4,0.4-0.2,0.7c0.1,0.1,0.2,0.2,0.2,0.3c0.2,0.2,0.5,0.3,0.7,0.1
		l0.2-0.2c0.3-0.3,0.8-0.2,1.1,0.1l0,0c0.4,0,0.6,0.5,0.3,0.7l-0.5,0.4c-0.2,0.2-0.2,0.5,0,0.7c0.1,0.1,0.2,0.2,0.3,0.3
		c0.2,0.2,0.5,0.1,0.7-0.1l0.1-0.2c0.2-0.3,0.6-0.4,0.9-0.3c0.4,0.2,0.6,0.7,0.3,1.1l-0.1,0.2c-0.2,0.2-0.1,0.6,0.2,0.7
		c0.1,0.1,0.3,0.1,0.4,0.2c0.3,0.1,0.5,0,0.6-0.3l0.1-0.2c0.1-0.3,0.4-0.6,0.8-0.5c0.5,0,0.8,0.5,0.6,0.9l-0.1,0.2
		c-0.1,0.3,0.1,0.6,0.4,0.6c0.1,0,0.3,0,0.4,0.1c0.3,0,0.5-0.2,0.5-0.5v-0.3c0-0.4,0.3-0.7,0.7-0.7l0,0c0.4,0,0.7,0.3,0.7,0.7v0.2
		c0,0.3,0.3,0.5,0.5,0.5c0.1,0,0.3,0,0.4-0.1c0.3,0,0.4-0.3,0.4-0.6l-0.1-0.2c-0.1-0.3,0.1-0.7,0.4-0.9c0.4-0.2,0.9,0,1,0.5l0.1,0.2
		c0.1,0.3,0.4,0.4,0.6,0.3c0.1-0.1,0.3-0.1,0.4-0.2c0.2-0.1,0.3-0.4,0.2-0.7l-0.1-0.2c-0.2-0.3-0.2-0.7,0.1-1
		c0.3-0.3,0.9-0.2,1.1,0.1l0.1,0.2c0.2,0.2,0.5,0.3,0.7,0.1c0.1-0.1,0.2-0.2,0.3-0.3c0.2-0.2,0.2-0.5,0-0.7l-0.2-0.2
		c-0.3-0.2-0.4-0.6-0.2-1c0.2-0.4,0.8-0.5,1.1-0.2l0.2,0.1c0.2,0.2,0.5,0.1,0.7-0.1c0.1-0.1,0.1-0.2,0.2-0.4c0.1-0.2,0-0.5-0.2-0.7
		l-0.2-0.1c-0.4-0.2-0.5-0.6-0.4-1c0-0.4,0.4-0.6,0.7-0.5l0.4,0.2c0.3,0.1,0.6,0,0.6-0.3c0-0.1,0.1-0.3,0.1-0.4
		c0.1-0.3-0.1-0.5-0.4-0.6l-0.3,0c-0.4-0.1-0.7-0.5-0.6-1c0.1-0.3,0.5-0.6,0.8-0.5l0.2,0c0.3,0,0.5-0.2,0.5-0.5c0,0,0,0,0,0
		C467.5,384.1,467.5,384,467.5,383.8z M458.4,386.5l-0.9-2l2,0.8C459.3,385.8,458.9,386.3,458.4,386.5z M459.6,382.9l-2,0.9l0.8-2
		C458.9,382,459.3,382.4,459.6,382.9z M457.7,384.1l2-0.9c0.1,0.3,0.1,0.6,0.1,0.9c0,0.3,0,0.5-0.1,0.8L457.7,384.1z M463.6,384.2
		c0,0.4-0.3,0.7-0.7,0.7c-0.4,0-0.7-0.3-0.7-0.7c0-0.4,0.3-0.7,0.7-0.7C463.3,383.5,463.6,383.8,463.6,384.2z M460.7,379.7
		c0.3-0.3,0.7-0.3,0.9,0c0.3,0.3,0.3,0.7,0,0.9c-0.3,0.3-0.7,0.3-0.9,0C460.5,380.4,460.5,380,460.7,379.7z M457.2,377.9
		c0.4,0,0.7,0.3,0.7,0.7c0,0.4-0.3,0.7-0.7,0.7c-0.4,0-0.7-0.3-0.7-0.7C456.5,378.2,456.8,377.9,457.2,377.9z M457.2,381.4
		c0.3,0,0.5,0,0.8,0.1l-0.8,2l-0.9-2C456.6,381.5,456.9,381.4,457.2,381.4z M454.8,385.4l2-0.9l-0.8,2
		C455.5,386.3,455.1,385.9,454.8,385.4z M451.5,383.6c0.4,0,0.7,0.3,0.7,0.7s-0.3,0.7-0.7,0.7c-0.4,0-0.7-0.3-0.7-0.7
		S451.2,383.6,451.5,383.6z M454.5,384.1c0-0.3,0-0.5,0.1-0.8l2,0.8l-2,0.9C454.5,384.7,454.5,384.4,454.5,384.1z M455.9,381.8
		l0.9,2l-2-0.8C455,382.4,455.4,382,455.9,381.8z M452.7,379.8c0.3-0.3,0.7-0.3,0.9,0c0.3,0.3,0.3,0.7,0,0.9c-0.3,0.3-0.7,0.3-0.9,0
		C452.4,380.5,452.4,380.1,452.7,379.8z M453.7,388.8c-0.3,0.3-0.7,0.3-0.9,0c-0.3-0.3-0.3-0.7,0-0.9c0.3-0.3,0.7-0.3,0.9,0
		C454,388.1,454,388.5,453.7,388.8z M457.3,390.6c-0.4,0-0.7-0.3-0.7-0.7c0-0.4,0.3-0.7,0.7-0.7c0.4,0,0.7,0.3,0.7,0.7
		C457.9,390.3,457.6,390.6,457.3,390.6z M457.2,386.8c-0.3,0-0.5,0-0.8-0.1l0.8-2l0.9,2C457.8,386.8,457.5,386.8,457.2,386.8z
		 M461.7,388.7c-0.3,0.3-0.7,0.3-0.9,0c-0.3-0.3-0.3-0.7,0-0.9c0.3-0.3,0.7-0.3,0.9,0C462,388,462,388.4,461.7,388.7z"/>
	<path class="st0" d="M380.4,464.8c0-0.8-0.8-1.4-1.6-1.3l-0.7,0.1c-1.1,0.2-2.1-0.5-2.5-1.5c-0.4-1.3,0.5-2.7,1.8-2.9l0.6-0.1
		c0.8-0.1,1.4-1,1.1-1.8c-0.1-0.4-0.2-0.8-0.4-1.2c-0.3-0.8-1.1-1.2-1.9-0.8l-0.6,0.3c-1,0.5-2.2,0.2-2.8-0.7
		c-0.8-1.2-0.3-2.7,0.9-3.3l0.6-0.3c0.8-0.4,1-1.3,0.6-2c-0.2-0.3-0.5-0.7-0.7-1c-0.5-0.7-1.4-0.8-2-0.3l-0.6,0.5
		c-0.9,0.8-2.3,0.7-3.1-0.2c-1.2,0-1.7-1.4-0.8-2.2l1.5-1.3c0.6-0.6,0.6-1.5,0-2.1c-0.3-0.3-0.6-0.5-1-0.8c-0.6-0.5-1.6-0.4-2,0.3
		l-0.4,0.6c-0.7,1-2,1.3-3.1,0.7c-1-0.7-1.3-2-0.7-3.1l0.3-0.5c0.5-0.7,0.2-1.7-0.6-2c-0.4-0.2-0.8-0.3-1.1-0.5
		c-0.8-0.3-1.6,0.1-1.9,0.9l-0.2,0.7c-0.3,1.2-1.6,1.8-2.7,1.5l0,0c-1.2-0.3-1.8-1.6-1.5-2.7l0.2-0.6c0.2-0.8-0.3-1.6-1.1-1.8
		c-0.4-0.1-0.8-0.1-1.2-0.2c-0.8-0.1-1.5,0.6-1.5,1.4v0.8c0,1.2-1,2.2-2.2,2.2l0,0c-1.2,0-2.2-1-2.2-2.2v-0.6c0-0.8-0.7-1.5-1.6-1.4
		c-0.4,0.1-0.8,0.1-1.2,0.2c-0.8,0.1-1.3,1-1.1,1.8l0.2,0.7c0.3,1-0.1,2.2-1.1,2.7c-1.3,0.6-2.7-0.1-3.1-1.4l-0.2-0.6
		c-0.2-0.8-1.1-1.2-1.9-0.9c-0.4,0.2-0.8,0.4-1.1,0.5c-0.7,0.4-1,1.3-0.5,2l0.4,0.6c0.7,1,0.4,2.4-0.7,3.1l0,0
		c-1,0.7-2.4,0.4-3.1-0.7l-0.3-0.5c-0.5-0.7-1.4-0.9-2.1-0.3c-0.3,0.3-0.6,0.5-0.9,0.8c-0.6,0.6-0.6,1.5,0,2.1l0.6,0.5
		c0.9,0.8,1,2.2,0.2,3.1c-0.8,0.9-2.2,1-3.1,0.2l-0.5-0.4c-0.6-0.6-1.6-0.4-2.1,0.3c-0.2,0.3-0.4,0.7-0.7,1.1
		c-0.4,0.7-0.1,1.6,0.6,2l0.7,0.3c1.1,0.5,1.6,1.8,1.1,2.9l0,0c-0.5,1.1-1.8,1.6-2.9,1.1l-0.6-0.3c-0.8-0.3-1.7,0.1-1.9,0.9
		c-0.1,0.4-0.2,0.8-0.3,1.2c-0.2,0.8,0.3,1.6,1.1,1.7l0.7,0.1c1.2,0.2,2,1.3,1.9,2.5c-0.2,1.2-1.3,2-2.5,1.9l-0.6-0.1
		c-0.8-0.1-1.6,0.5-1.6,1.4c0,0,0,0,0,0c0,0.4,0,0.8,0,1.2c0,0.8,0.8,1.4,1.6,1.3l0.7-0.1c1.2-0.2,2.3,0.7,2.5,1.9
		c0.2,1.2-0.7,2.3-1.9,2.5l-0.6,0.1c-0.8,0.1-1.4,1-1.1,1.8c0.1,0.4,0.2,0.8,0.4,1.2c0.3,0.8,1.1,1.2,1.9,0.8l0.7-0.3
		c1.1-0.5,2.4,0,2.9,1.1c0.5,1.1,0,2.4-1.1,2.9l-0.6,0.3c-0.8,0.4-1,1.3-0.6,2c0.2,0.3,0.5,0.7,0.7,1c0.5,0.7,1.4,0.8,2,0.3l0.6-0.5
		c0.9-0.8,2.3-0.7,3.1,0.2c1.2,0,1.7,1.4,0.8,2.2l-1.5,1.3c-0.6,0.6-0.6,1.5,0,2.1c0.3,0.3,0.6,0.5,1,0.8c0.6,0.5,1.6,0.4,2-0.3
		l0.4-0.6c0.6-0.9,1.8-1.3,2.8-0.9c1.3,0.6,1.7,2.1,1,3.2l-0.3,0.5c-0.5,0.7-0.2,1.7,0.6,2c0.4,0.2,0.8,0.3,1.1,0.5
		c0.8,0.3,1.6-0.1,1.9-0.9l0.2-0.7c0.3-1,1.3-1.7,2.4-1.6c1.4,0.1,2.3,1.5,1.9,2.8l-0.2,0.6c-0.2,0.8,0.3,1.6,1.1,1.8
		c0.4,0.1,0.8,0.1,1.2,0.2c0.8,0.1,1.5-0.6,1.5-1.4v-0.8c0-1.2,1-2.2,2.2-2.2c1.2,0,2.2,1,2.2,2.2v0.6c0,0.8,0.7,1.5,1.6,1.4
		c0.4-0.1,0.8-0.1,1.2-0.2c0.8-0.1,1.3-1,1.1-1.8l-0.2-0.7c-0.3-1,0.1-2.2,1.1-2.7c1.3-0.6,2.7,0.1,3.1,1.4l0.2,0.6
		c0.2,0.8,1.1,1.2,1.9,0.9c0.4-0.2,0.8-0.4,1.1-0.5c0.7-0.4,1-1.3,0.5-2l-0.4-0.6c-0.6-0.9-0.5-2.1,0.3-2.9c1-0.9,2.6-0.7,3.4,0.4
		l0.3,0.5c0.5,0.7,1.4,0.9,2.1,0.3c0.3-0.3,0.6-0.5,0.9-0.8c0.6-0.6,0.6-1.5,0-2.1l-0.5-0.4c-0.8-0.7-1.1-1.9-0.5-2.9
		c0.7-1.2,2.3-1.4,3.3-0.5l0.5,0.4c0.6,0.6,1.6,0.4,2.1-0.3c0.2-0.3,0.4-0.7,0.7-1.1c0.4-0.7,0.1-1.6-0.6-2l-0.7-0.3
		c-1.1-0.5-1.6-1.8-1.1-2.9c0-1.1,1.2-1.9,2.2-1.4l1.3,0.6c0.8,0.3,1.7-0.1,1.9-0.9c0.1-0.4,0.2-0.8,0.3-1.2
		c0.2-0.8-0.3-1.6-1.1-1.7l-0.7-0.1c-1.3-0.2-2.2-1.5-1.8-2.9c0.3-1,1.4-1.6,2.5-1.5l0.5,0.1c0.8,0.1,1.6-0.5,1.6-1.4c0,0,0,0,0,0
		C380.5,465.6,380.5,465.2,380.4,464.8z M351.1,446.8c0-1.3,1-2,2.2-1.7l8.9,3.7c1,0.7,1.2,2,0.3,2.8l-2,2c-0.9,0.9-2.5,1.1-3.5,0.4
		l-3.7-1.6c-1.2-0.3-2.2-1.6-2.2-2.9V446.8z M358,473.5l-3-3c0.9-1.1,1.5-2.4,1.6-3.9h4.2C360.7,469.3,359.7,471.7,358,473.5z
		 M356.6,465.4c-0.1-1.5-0.7-2.8-1.6-3.8l3-3c1.6,1.8,2.7,4.2,2.8,6.8H356.6z M357.1,457.7l-3,3c-1.1-0.9-2.4-1.5-3.8-1.6v-4.2
		C352.9,455.1,355.3,456.1,357.1,457.7z M338.5,466.7h4.2c0.1,1.5,0.7,2.8,1.6,3.9l-3,3C339.7,471.7,338.6,469.3,338.5,466.7z
		 M341.3,458.6l3,3c-0.9,1.1-1.5,2.4-1.6,3.8h-4.2C338.7,462.8,339.7,460.4,341.3,458.6z M349,459.1c-1.5,0.1-2.8,0.7-3.8,1.6l-3-3
		c1.8-1.6,4.2-2.7,6.8-2.8V459.1z M337.1,448.9l8.9-3.7c1.2-0.3,2.2,0.5,2.2,1.7v2.8c0,1.3-1,2.5-2.2,2.9l-3.7,1.6
		c-1.1,0.7-2.6,0.5-3.5-0.4l-2-2C335.9,450.8,336.1,449.5,337.1,448.9z M328.6,462.9l3.4-8.8c0.6-1.1,1.9-1.2,2.8-0.3l2,2
		c0.9,0.9,1.1,2.5,0.5,3.6l-1.3,3.6c-0.3,1.2-1.5,2.2-2.8,2.2h-2.8C329.2,465.1,328.4,464.2,328.6,462.9z M335.3,478.9
		c-0.9,0.9-2.2,0.8-2.9-0.3l-3.6-8.4c-0.3-1.2,0.4-2.2,1.7-2.2h2.8c1.2,0,2.6,1,2.9,2.2l1.4,3.2c0.7,1.1,0.5,2.6-0.4,3.5
		L335.3,478.9z M348.2,485.3c0,1.2-1,2-2.2,1.7l-8.3-3.3c-1.1-0.7-1.2-1.9-0.3-2.8l2-2c0.9-0.9,2.5-1.1,3.6-0.5l3,1.2
		c1.2,0.3,2.2,1.6,2.2,2.8V485.3z M342.2,474.4l3-3c1.1,0.9,2.4,1.5,3.9,1.6v4.2C346.4,477.1,344,476.1,342.2,474.4z M350.3,473
		c1.5-0.1,2.8-0.7,3.9-1.6l3,3c-1.8,1.6-4.2,2.7-6.8,2.8V473z M361.6,483.8l-8.3,3.3c-1.2,0.3-2.2-0.5-2.2-1.7v-2.8
		c0-1.2,1-2.5,2.2-2.8l3-1.2c1.1-0.6,2.7-0.4,3.6,0.5l2,2C362.8,481.8,362.7,483.1,361.6,483.8z M370.6,470.3l-3.6,8.4
		c-0.7,1-2,1.2-2.9,0.3l-2-2c-0.9-0.9-1.1-2.5-0.4-3.5l1.4-3.2c0.4-1.2,1.7-2.2,2.9-2.2h2.8C370.1,468.1,370.9,469.1,370.6,470.3z
		 M368.9,465.1h-2.8c-1.2,0-2.5-1-2.8-2.2l-1.3-3.6c-0.6-1.1-0.4-2.7,0.5-3.6l2-2c0.9-0.9,2.1-0.7,2.8,0.3l3.4,8.8
		C371,464.2,370.2,465.1,368.9,465.1z"/>
	<path class="st0" d="M298.6,322.7c0-0.2-0.2-0.4-0.4-0.4l-0.2,0c-0.3,0-0.6-0.1-0.7-0.4c-0.1-0.4,0.1-0.8,0.5-0.8l0.2,0
		c0.2,0,0.4-0.3,0.3-0.5c0-0.1-0.1-0.2-0.1-0.3c-0.1-0.2-0.3-0.3-0.5-0.2l-0.2,0.1c-0.3,0.1-0.6,0-0.8-0.2c-0.2-0.3-0.1-0.8,0.3-0.9
		l0.2-0.1c0.2-0.1,0.3-0.4,0.2-0.6c-0.1-0.1-0.1-0.2-0.2-0.3c-0.1-0.2-0.4-0.2-0.6-0.1l-0.2,0.1c-0.3,0.2-0.7,0.2-0.9-0.1
		c-0.3,0-0.5-0.4-0.2-0.6l0.4-0.4c0.2-0.2,0.2-0.4,0-0.6c-0.1-0.1-0.2-0.2-0.3-0.2c-0.2-0.1-0.4-0.1-0.6,0.1l-0.1,0.2
		c-0.2,0.3-0.6,0.4-0.9,0.2c-0.3-0.2-0.4-0.6-0.2-0.9l0.1-0.1c0.1-0.2,0.1-0.5-0.2-0.6c-0.1,0-0.2-0.1-0.3-0.1
		c-0.2-0.1-0.5,0-0.5,0.3l-0.1,0.2c-0.1,0.3-0.4,0.5-0.8,0.4l0,0c-0.3-0.1-0.5-0.4-0.4-0.8l0-0.2c0.1-0.2-0.1-0.5-0.3-0.5
		c-0.1,0-0.2,0-0.3,0c-0.2,0-0.4,0.2-0.4,0.4v0.2c0,0.3-0.3,0.6-0.6,0.6l0,0c-0.3,0-0.6-0.3-0.6-0.6v-0.2c0-0.2-0.2-0.4-0.4-0.4
		c-0.1,0-0.2,0-0.3,0.1c-0.2,0-0.4,0.3-0.3,0.5l0.1,0.2c0.1,0.3,0,0.6-0.3,0.8c-0.4,0.2-0.8,0-0.9-0.4l0-0.2
		c-0.1-0.2-0.3-0.3-0.5-0.2c-0.1,0-0.2,0.1-0.3,0.2c-0.2,0.1-0.3,0.4-0.2,0.6l0.1,0.2c0.2,0.3,0.1,0.7-0.2,0.9l0,0
		c-0.3,0.2-0.7,0.1-0.9-0.2l-0.1-0.1c-0.1-0.2-0.4-0.2-0.6-0.1c-0.1,0.1-0.2,0.2-0.3,0.2c-0.2,0.2-0.2,0.4,0,0.6l0.2,0.1
		c0.3,0.2,0.3,0.6,0.1,0.9c-0.2,0.3-0.6,0.3-0.9,0.1l-0.1-0.1c-0.2-0.2-0.5-0.1-0.6,0.1c-0.1,0.1-0.1,0.2-0.2,0.3
		c-0.1,0.2,0,0.5,0.2,0.6l0.2,0.1c0.3,0.1,0.4,0.5,0.3,0.8l0,0c-0.1,0.3-0.5,0.4-0.8,0.3l-0.2-0.1c-0.2-0.1-0.5,0-0.5,0.2
		c0,0.1-0.1,0.2-0.1,0.3c-0.1,0.2,0.1,0.4,0.3,0.5l0.2,0c0.3,0,0.6,0.4,0.5,0.7c0,0.3-0.4,0.6-0.7,0.5l-0.2,0
		c-0.2,0-0.4,0.1-0.4,0.4c0,0,0,0,0,0c0,0.1,0,0.2,0,0.4c0,0.2,0.2,0.4,0.4,0.4l0.2,0c0.3,0,0.7,0.2,0.7,0.5c0,0.3-0.2,0.7-0.5,0.7
		l-0.2,0c-0.2,0-0.4,0.3-0.3,0.5c0,0.1,0.1,0.2,0.1,0.3c0.1,0.2,0.3,0.3,0.5,0.2l0.2-0.1c0.3-0.1,0.7,0,0.8,0.3
		c0.1,0.3,0,0.7-0.3,0.8l-0.2,0.1c-0.2,0.1-0.3,0.4-0.2,0.6c0.1,0.1,0.1,0.2,0.2,0.3c0.1,0.2,0.4,0.2,0.6,0.1l0.2-0.1
		c0.3-0.2,0.7-0.2,0.9,0.1c0.3,0,0.5,0.4,0.2,0.6l-0.4,0.4c-0.2,0.2-0.2,0.4,0,0.6c0.1,0.1,0.2,0.2,0.3,0.2c0.2,0.1,0.4,0.1,0.6-0.1
		l0.1-0.2c0.2-0.3,0.5-0.4,0.8-0.3c0.4,0.2,0.5,0.6,0.3,0.9l-0.1,0.1c-0.1,0.2-0.1,0.5,0.2,0.6c0.1,0,0.2,0.1,0.3,0.1
		c0.2,0.1,0.5,0,0.5-0.3l0.1-0.2c0.1-0.3,0.4-0.5,0.7-0.5c0.4,0,0.6,0.4,0.5,0.8l0,0.2c-0.1,0.2,0.1,0.5,0.3,0.5c0.1,0,0.2,0,0.3,0
		c0.2,0,0.4-0.2,0.4-0.4V331c0-0.3,0.3-0.6,0.6-0.6c0.3,0,0.6,0.3,0.6,0.6v0.2c0,0.2,0.2,0.4,0.4,0.4c0.1,0,0.2,0,0.3-0.1
		c0.2,0,0.4-0.3,0.3-0.5l-0.1-0.2c-0.1-0.3,0-0.6,0.3-0.8c0.4-0.2,0.8,0,0.9,0.4l0,0.2c0.1,0.2,0.3,0.3,0.5,0.2
		c0.1,0,0.2-0.1,0.3-0.2c0.2-0.1,0.3-0.4,0.2-0.6L294,330c-0.2-0.3-0.1-0.6,0.1-0.8c0.3-0.3,0.7-0.2,0.9,0.1l0.1,0.1
		c0.1,0.2,0.4,0.2,0.6,0.1c0.1-0.1,0.2-0.2,0.3-0.2c0.2-0.2,0.2-0.4,0-0.6l-0.1-0.1c-0.2-0.2-0.3-0.5-0.1-0.8
		c0.2-0.3,0.7-0.4,0.9-0.2l0.1,0.1c0.2,0.2,0.5,0.1,0.6-0.1c0.1-0.1,0.1-0.2,0.2-0.3c0.1-0.2,0-0.5-0.2-0.6l-0.2-0.1
		c-0.3-0.1-0.4-0.5-0.3-0.8c0-0.3,0.3-0.5,0.6-0.4l0.4,0.2c0.2,0.1,0.5,0,0.5-0.2c0-0.1,0.1-0.2,0.1-0.3c0.1-0.2-0.1-0.4-0.3-0.5
		l-0.2,0c-0.4-0.1-0.6-0.4-0.5-0.8c0.1-0.3,0.4-0.5,0.7-0.4l0.2,0c0.2,0,0.4-0.1,0.4-0.4c0,0,0,0,0,0
		C298.7,322.9,298.6,322.8,298.6,322.7z M290.4,317.6c0-0.4,0.3-0.6,0.6-0.5l2.5,1c0.3,0.2,0.3,0.6,0.1,0.8l-0.6,0.6
		c-0.2,0.2-0.7,0.3-1,0.1l-1-0.4c-0.3-0.1-0.6-0.5-0.6-0.8V317.6z M292.3,325.1l-0.8-0.8c0.2-0.3,0.4-0.7,0.4-1.1h1.2
		C293.1,323.9,292.8,324.6,292.3,325.1z M291.9,322.8c0-0.4-0.2-0.8-0.5-1.1l0.8-0.8c0.5,0.5,0.8,1.2,0.8,1.9H291.9z M292.1,320.7
		l-0.8,0.8c-0.3-0.2-0.7-0.4-1.1-0.4v-1.2C290.9,319.9,291.6,320.2,292.1,320.7z M286.9,323.2h1.2c0,0.4,0.2,0.8,0.4,1.1l-0.8,0.8
		C287.2,324.6,286.9,323.9,286.9,323.2z M287.7,320.9l0.8,0.8c-0.3,0.3-0.4,0.7-0.5,1.1h-1.2C286.9,322.1,287.2,321.4,287.7,320.9z
		 M289.8,321.1c-0.4,0-0.8,0.2-1.1,0.4l-0.8-0.8c0.5-0.5,1.2-0.8,1.9-0.8V321.1z M286.5,318.2l2.5-1c0.3-0.1,0.6,0.1,0.6,0.5v0.8
		c0,0.4-0.3,0.7-0.6,0.8l-1,0.4c-0.3,0.2-0.7,0.1-1-0.1l-0.6-0.6C286.1,318.7,286.2,318.4,286.5,318.2z M284.1,322.1l1-2.5
		c0.2-0.3,0.5-0.3,0.8-0.1l0.6,0.6c0.2,0.2,0.3,0.7,0.1,1l-0.4,1c-0.1,0.3-0.4,0.6-0.8,0.6h-0.8C284.2,322.8,284,322.5,284.1,322.1z
		 M285.9,326.6c-0.2,0.2-0.6,0.2-0.8-0.1l-1-2.4c-0.1-0.3,0.1-0.6,0.5-0.6h0.8c0.4,0,0.7,0.3,0.8,0.6l0.4,0.9c0.2,0.3,0.1,0.7-0.1,1
		L285.9,326.6z M289.6,328.4c0,0.4-0.3,0.6-0.6,0.5l-2.3-0.9c-0.3-0.2-0.3-0.5-0.1-0.8l0.6-0.6c0.2-0.2,0.7-0.3,1-0.1l0.9,0.3
		c0.3,0.1,0.6,0.4,0.6,0.8V328.4z M287.9,325.4l0.8-0.8c0.3,0.3,0.7,0.4,1.1,0.5v1.2C289.1,326.1,288.4,325.8,287.9,325.4z
		 M290.2,325c0.4,0,0.8-0.2,1.1-0.5l0.8,0.8c-0.5,0.5-1.2,0.8-1.9,0.8V325z M293.4,328l-2.3,0.9c-0.3,0.1-0.6-0.1-0.6-0.5v-0.8
		c0-0.4,0.3-0.7,0.6-0.8l0.9-0.3c0.3-0.2,0.8-0.1,1,0.1l0.6,0.6C293.7,327.4,293.7,327.8,293.4,328z M295.9,324.2l-1,2.4
		c-0.2,0.3-0.6,0.3-0.8,0.1l-0.6-0.6c-0.2-0.2-0.3-0.7-0.1-1l0.4-0.9c0.1-0.3,0.5-0.6,0.8-0.6h0.8
		C295.7,323.6,296,323.9,295.9,324.2z M295.4,322.8h-0.8c-0.4,0-0.7-0.3-0.8-0.6l-0.4-1c-0.2-0.3-0.1-0.8,0.1-1l0.6-0.6
		c0.2-0.2,0.6-0.2,0.8,0.1l1,2.5C296,322.5,295.8,322.8,295.4,322.8z"/>
	<path class="st0" d="M304.5,261.3c0-0.3-0.3-0.5-0.6-0.5l-0.3,0c-0.4,0.1-0.8-0.2-0.9-0.6c-0.2-0.5,0.2-1,0.7-1.1l0.2,0
		c0.3,0,0.5-0.4,0.4-0.7c0-0.2-0.1-0.3-0.1-0.4c-0.1-0.3-0.4-0.4-0.7-0.3l-0.2,0.1c-0.4,0.2-0.8,0.1-1.1-0.3c-0.3-0.4-0.1-1,0.3-1.2
		l0.2-0.1c0.3-0.1,0.4-0.5,0.2-0.8c-0.1-0.1-0.2-0.3-0.3-0.4c-0.2-0.3-0.5-0.3-0.8-0.1l-0.2,0.2c-0.3,0.3-0.9,0.3-1.2-0.1
		c-0.4,0-0.6-0.5-0.3-0.8l0.6-0.5c0.2-0.2,0.2-0.6,0-0.8c-0.1-0.1-0.2-0.2-0.4-0.3c-0.2-0.2-0.6-0.1-0.8,0.1l-0.2,0.2
		c-0.2,0.4-0.8,0.5-1.2,0.3c-0.4-0.2-0.5-0.8-0.3-1.2l0.1-0.2c0.2-0.3,0.1-0.6-0.2-0.8c-0.1-0.1-0.3-0.1-0.4-0.2
		c-0.3-0.1-0.6,0-0.7,0.3l-0.1,0.3c-0.1,0.4-0.6,0.7-1,0.6l0,0c-0.4-0.1-0.7-0.6-0.6-1l0.1-0.2c0.1-0.3-0.1-0.6-0.4-0.7
		c-0.2,0-0.3,0-0.5-0.1c-0.3,0-0.6,0.2-0.6,0.5v0.3c0,0.5-0.4,0.8-0.8,0.8l0,0c-0.5,0-0.8-0.4-0.8-0.8v-0.2c0-0.3-0.3-0.6-0.6-0.5
		c-0.2,0-0.3,0-0.5,0.1c-0.3,0.1-0.5,0.4-0.4,0.7l0.1,0.2c0.1,0.4-0.1,0.8-0.4,1c-0.5,0.2-1,0-1.2-0.5l-0.1-0.2
		c-0.1-0.3-0.4-0.5-0.7-0.3c-0.1,0.1-0.3,0.1-0.4,0.2c-0.3,0.1-0.4,0.5-0.2,0.8l0.2,0.2c0.2,0.4,0.1,0.9-0.3,1.2l0,0
		c-0.4,0.2-0.9,0.1-1.2-0.3l-0.1-0.2c-0.2-0.3-0.5-0.3-0.8-0.1c-0.1,0.1-0.2,0.2-0.3,0.3c-0.2,0.2-0.2,0.6,0,0.8l0.2,0.2
		c0.3,0.3,0.4,0.8,0.1,1.2c-0.3,0.3-0.8,0.4-1.2,0.1l-0.2-0.1c-0.2-0.2-0.6-0.2-0.8,0.1c-0.1,0.1-0.2,0.3-0.2,0.4
		c-0.2,0.3,0,0.6,0.2,0.7l0.3,0.1c0.4,0.2,0.6,0.7,0.4,1.1l0,0c-0.2,0.4-0.7,0.6-1.1,0.4l-0.2-0.1c-0.3-0.1-0.6,0-0.7,0.3
		c0,0.1-0.1,0.3-0.1,0.5c-0.1,0.3,0.1,0.6,0.4,0.6l0.3,0c0.5,0.1,0.8,0.5,0.7,0.9c-0.1,0.5-0.5,0.8-0.9,0.7l-0.2,0
		c-0.3,0-0.6,0.2-0.6,0.5c0,0,0,0,0,0c0,0.2,0,0.3,0,0.5c0,0.3,0.3,0.5,0.6,0.5l0.3,0c0.5-0.1,0.9,0.3,0.9,0.7
		c0.1,0.5-0.3,0.9-0.7,0.9l-0.2,0c-0.3,0-0.5,0.4-0.4,0.7c0,0.1,0.1,0.3,0.1,0.4c0.1,0.3,0.4,0.4,0.7,0.3l0.3-0.1
		c0.4-0.2,0.9,0,1.1,0.4c0.2,0.4,0,0.9-0.4,1.1l-0.2,0.1c-0.3,0.1-0.4,0.5-0.2,0.8c0.1,0.1,0.2,0.3,0.3,0.4c0.2,0.3,0.5,0.3,0.8,0.1
		l0.2-0.2c0.3-0.3,0.9-0.3,1.2,0.1c0.4,0,0.6,0.5,0.3,0.8l-0.6,0.5c-0.2,0.2-0.2,0.6,0,0.8c0.1,0.1,0.2,0.2,0.4,0.3
		c0.2,0.2,0.6,0.1,0.8-0.1l0.1-0.2c0.2-0.3,0.7-0.5,1-0.3c0.5,0.2,0.7,0.8,0.4,1.2l-0.1,0.2c-0.2,0.3-0.1,0.6,0.2,0.8
		c0.1,0.1,0.3,0.1,0.4,0.2c0.3,0.1,0.6,0,0.7-0.3l0.1-0.3c0.1-0.4,0.5-0.7,0.9-0.6c0.5,0.1,0.9,0.6,0.7,1.1l-0.1,0.2
		c-0.1,0.3,0.1,0.6,0.4,0.7c0.2,0,0.3,0,0.5,0.1c0.3,0,0.6-0.2,0.6-0.5v-0.3c0-0.5,0.4-0.8,0.8-0.8c0.5,0,0.8,0.4,0.8,0.8v0.2
		c0,0.3,0.3,0.6,0.6,0.5c0.2,0,0.3,0,0.5-0.1c0.3-0.1,0.5-0.4,0.4-0.7l-0.1-0.2c-0.1-0.4,0.1-0.8,0.4-1c0.5-0.2,1,0,1.2,0.5l0.1,0.2
		c0.1,0.3,0.4,0.5,0.7,0.3c0.1-0.1,0.3-0.1,0.4-0.2c0.3-0.1,0.4-0.5,0.2-0.7l-0.1-0.2c-0.2-0.3-0.2-0.8,0.1-1.1
		c0.4-0.4,1-0.3,1.3,0.2l0.1,0.2c0.2,0.3,0.5,0.3,0.8,0.1c0.1-0.1,0.2-0.2,0.3-0.3c0.2-0.2,0.2-0.6,0-0.8l-0.2-0.2
		c-0.3-0.3-0.4-0.7-0.2-1.1c0.3-0.5,0.9-0.5,1.3-0.2l0.2,0.2c0.2,0.2,0.6,0.2,0.8-0.1c0.1-0.1,0.2-0.3,0.2-0.4
		c0.2-0.3,0-0.6-0.2-0.7l-0.3-0.1c-0.4-0.2-0.6-0.7-0.4-1.1c0-0.4,0.4-0.7,0.8-0.5l0.5,0.2c0.3,0.1,0.6,0,0.7-0.3
		c0-0.2,0.1-0.3,0.1-0.5c0.1-0.3-0.1-0.6-0.4-0.6l-0.3,0c-0.5-0.1-0.8-0.6-0.7-1.1c0.1-0.4,0.5-0.6,0.9-0.6l0.2,0
		c0.3,0,0.6-0.2,0.6-0.5c0,0,0,0,0,0C304.6,261.6,304.6,261.5,304.5,261.3z M293.5,254.5c0-0.5,0.4-0.8,0.8-0.6l3.3,1.4
		c0.4,0.3,0.4,0.7,0.1,1.1l-0.7,0.7c-0.3,0.3-0.9,0.4-1.3,0.1l-1.4-0.6c-0.5-0.1-0.8-0.6-0.8-1.1V254.5z M296.1,264.6l-1.1-1.1
		c0.3-0.4,0.5-0.9,0.6-1.5h1.6C297.1,263,296.7,263.9,296.1,264.6z M295.6,261.5c-0.1-0.5-0.3-1-0.6-1.4l1.1-1.1
		c0.6,0.7,1,1.6,1.1,2.6H295.6z M295.7,258.6l-1.1,1.1c-0.4-0.3-0.9-0.5-1.4-0.6v-1.6C294.2,257.6,295.1,258,295.7,258.6z
		 M288.7,262h1.6c0,0.6,0.3,1.1,0.6,1.5l-1.1,1.1C289.2,263.9,288.8,263,288.7,262z M289.8,259l1.1,1.1c-0.3,0.4-0.6,0.9-0.6,1.4
		h-1.6C288.8,260.6,289.2,259.7,289.8,259z M292.7,259.2c-0.5,0-1,0.3-1.4,0.6l-1.1-1.1c0.7-0.6,1.6-1,2.6-1.1V259.2z M288.2,255.3
		l3.3-1.4c0.5-0.1,0.8,0.2,0.8,0.6v1.1c0,0.5-0.4,1-0.8,1.1l-1.4,0.6c-0.4,0.3-1,0.2-1.3-0.1l-0.7-0.7
		C287.8,256,287.8,255.6,288.2,255.3z M285,260.6l1.3-3.3c0.2-0.4,0.7-0.5,1-0.1l0.7,0.7c0.3,0.3,0.4,0.9,0.2,1.4l-0.5,1.3
		c-0.1,0.5-0.6,0.8-1,0.8h-1C285.2,261.4,284.9,261.1,285,260.6z M287.5,266.6c-0.3,0.3-0.8,0.3-1.1-0.1l-1.4-3.2
		c-0.1-0.5,0.2-0.8,0.6-0.8h1.1c0.5,0,1,0.4,1.1,0.8l0.5,1.2c0.3,0.4,0.2,1-0.1,1.3L287.5,266.6z M292.4,269c0,0.5-0.4,0.8-0.8,0.7
		l-3.1-1.2c-0.4-0.2-0.5-0.7-0.1-1.1l0.7-0.7c0.3-0.3,0.9-0.4,1.3-0.2l1.1,0.4c0.5,0.1,0.8,0.6,0.8,1.1V269z M290.1,264.9l1.1-1.1
		c0.4,0.3,0.9,0.6,1.5,0.6v1.6C291.7,265.9,290.8,265.6,290.1,264.9z M293.2,264.4c0.6,0,1.1-0.3,1.5-0.6l1.1,1.1
		c-0.7,0.6-1.6,1-2.6,1.1V264.4z M297.4,268.5l-3.1,1.2c-0.5,0.1-0.8-0.2-0.8-0.7V268c0-0.5,0.4-1,0.8-1.1l1.1-0.4
		c0.4-0.2,1-0.2,1.3,0.2l0.7,0.7C297.9,267.7,297.9,268.2,297.4,268.5z M300.8,263.4l-1.4,3.2c-0.3,0.4-0.7,0.4-1.1,0.1l-0.7-0.7
		c-0.3-0.3-0.4-0.9-0.1-1.3l0.5-1.2c0.1-0.5,0.6-0.8,1.1-0.8h1.1C300.7,262.5,300.9,262.9,300.8,263.4z M300.2,261.4h-1
		c-0.5,0-0.9-0.4-1-0.8l-0.5-1.3c-0.2-0.4-0.1-1,0.2-1.4l0.8-0.7c0.3-0.3,0.8-0.3,1,0.1l1.3,3.3C301,261.1,300.7,261.4,300.2,261.4z
		"/>
	<path class="st0" d="M504.3,226.7c0-0.3-0.3-0.5-0.5-0.4l-0.2,0c-0.4,0.1-0.7-0.1-0.8-0.5c-0.1-0.4,0.2-0.9,0.6-0.9l0.2,0
		c0.3,0,0.4-0.3,0.4-0.6c0-0.1-0.1-0.3-0.1-0.4c-0.1-0.3-0.4-0.4-0.6-0.3l-0.2,0.1c-0.3,0.1-0.7,0.1-0.9-0.2
		c-0.3-0.4-0.1-0.9,0.3-1.1l0.2-0.1c0.3-0.1,0.3-0.4,0.2-0.7c-0.1-0.1-0.1-0.2-0.2-0.3c-0.2-0.2-0.5-0.3-0.7-0.1l-0.2,0.2
		c-0.3,0.3-0.8,0.2-1-0.1c-0.4,0-0.6-0.5-0.3-0.7l0.5-0.4c0.2-0.2,0.2-0.5,0-0.7c-0.1-0.1-0.2-0.2-0.3-0.3c-0.2-0.2-0.5-0.1-0.7,0.1
		l-0.1,0.2c-0.2,0.3-0.7,0.4-1,0.2c-0.3-0.2-0.4-0.7-0.2-1l0.1-0.2c0.1-0.2,0.1-0.5-0.2-0.7c-0.1-0.1-0.2-0.1-0.4-0.2
		c-0.2-0.1-0.5,0-0.6,0.3l-0.1,0.2c-0.1,0.4-0.5,0.6-0.9,0.5l0,0c-0.4-0.1-0.6-0.5-0.5-0.9l0.1-0.2c0.1-0.3-0.1-0.5-0.4-0.6
		c-0.1,0-0.3,0-0.4,0c-0.3,0-0.5,0.2-0.5,0.5v0.2c0,0.4-0.3,0.7-0.7,0.7l0,0c-0.4,0-0.7-0.3-0.7-0.7v-0.2c0-0.3-0.2-0.5-0.5-0.5
		c-0.1,0-0.3,0-0.4,0.1c-0.3,0-0.4,0.3-0.4,0.6l0.1,0.2c0.1,0.3,0,0.7-0.4,0.9c-0.4,0.2-0.9,0-1-0.4l-0.1-0.2
		c-0.1-0.3-0.4-0.4-0.6-0.3c-0.1,0.1-0.2,0.1-0.4,0.2c-0.2,0.1-0.3,0.4-0.2,0.7l0.1,0.2c0.2,0.3,0.1,0.8-0.2,1l0,0
		c-0.3,0.2-0.8,0.1-1-0.2l-0.1-0.2c-0.1-0.2-0.5-0.3-0.7-0.1c-0.1,0.1-0.2,0.2-0.3,0.3c-0.2,0.2-0.2,0.5,0,0.7l0.2,0.2
		c0.3,0.3,0.3,0.7,0.1,1c-0.3,0.3-0.7,0.3-1,0.1l-0.2-0.1c-0.2-0.2-0.5-0.1-0.7,0.1c-0.1,0.1-0.1,0.2-0.2,0.3
		c-0.1,0.2,0,0.5,0.2,0.6l0.2,0.1c0.4,0.2,0.5,0.6,0.4,1l0,0c-0.2,0.4-0.6,0.5-1,0.4l-0.2-0.1c-0.3-0.1-0.5,0-0.6,0.3
		c0,0.1-0.1,0.3-0.1,0.4c-0.1,0.3,0.1,0.5,0.4,0.6l0.2,0c0.4,0.1,0.7,0.4,0.6,0.8c-0.1,0.4-0.4,0.7-0.8,0.6l-0.2,0
		c-0.3,0-0.5,0.2-0.5,0.4c0,0,0,0,0,0c0,0.1,0,0.3,0,0.4c0,0.3,0.3,0.5,0.5,0.4l0.2,0c0.4-0.1,0.8,0.2,0.8,0.6
		c0.1,0.4-0.2,0.8-0.6,0.8l-0.2,0c-0.3,0-0.4,0.3-0.4,0.6c0,0.1,0.1,0.3,0.1,0.4c0.1,0.3,0.4,0.4,0.6,0.3l0.2-0.1
		c0.4-0.2,0.8,0,1,0.4c0.2,0.4,0,0.8-0.4,1l-0.2,0.1c-0.3,0.1-0.3,0.4-0.2,0.7c0.1,0.1,0.1,0.2,0.2,0.3c0.2,0.2,0.5,0.3,0.7,0.1
		l0.2-0.2c0.3-0.3,0.8-0.2,1,0.1c0.4,0,0.6,0.5,0.3,0.7l-0.5,0.4c-0.2,0.2-0.2,0.5,0,0.7c0.1,0.1,0.2,0.2,0.3,0.3
		c0.2,0.2,0.5,0.1,0.7-0.1l0.1-0.2c0.2-0.3,0.6-0.4,0.9-0.3c0.4,0.2,0.6,0.7,0.3,1.1l-0.1,0.2c-0.1,0.2-0.1,0.5,0.2,0.7
		c0.1,0.1,0.2,0.1,0.4,0.2c0.2,0.1,0.5,0,0.6-0.3l0.1-0.2c0.1-0.3,0.4-0.6,0.8-0.5c0.5,0,0.8,0.5,0.6,0.9l-0.1,0.2
		c-0.1,0.3,0.1,0.5,0.4,0.6c0.1,0,0.3,0,0.4,0c0.3,0,0.5-0.2,0.5-0.5v-0.2c0-0.4,0.3-0.7,0.7-0.7c0.4,0,0.7,0.3,0.7,0.7v0.2
		c0,0.3,0.2,0.5,0.5,0.5c0.1,0,0.3,0,0.4-0.1c0.3,0,0.4-0.3,0.4-0.6l-0.1-0.2c-0.1-0.3,0-0.7,0.4-0.9c0.4-0.2,0.9,0,1,0.4l0.1,0.2
		c0.1,0.3,0.4,0.4,0.6,0.3c0.1-0.1,0.2-0.1,0.4-0.2c0.2-0.1,0.3-0.4,0.2-0.7l-0.1-0.2c-0.2-0.3-0.2-0.7,0.1-0.9
		c0.3-0.3,0.9-0.2,1.1,0.1l0.1,0.2c0.1,0.2,0.5,0.3,0.7,0.1c0.1-0.1,0.2-0.2,0.3-0.3c0.2-0.2,0.2-0.5,0-0.7l-0.2-0.1
		c-0.3-0.2-0.3-0.6-0.2-0.9c0.2-0.4,0.8-0.5,1.1-0.2l0.2,0.1c0.2,0.2,0.5,0.1,0.7-0.1c0.1-0.1,0.1-0.2,0.2-0.3
		c0.1-0.2,0-0.5-0.2-0.6l-0.2-0.1c-0.4-0.2-0.5-0.6-0.4-1c0-0.4,0.4-0.6,0.7-0.5l0.4,0.2c0.3,0.1,0.5,0,0.6-0.3
		c0-0.1,0.1-0.3,0.1-0.4c0.1-0.3-0.1-0.5-0.4-0.6l-0.2,0c-0.4-0.1-0.7-0.5-0.6-0.9c0.1-0.3,0.5-0.5,0.8-0.5l0.2,0
		c0.3,0,0.5-0.2,0.5-0.4c0,0,0,0,0,0C504.3,227,504.3,226.8,504.3,226.7z M494.7,220.8c0-0.4,0.3-0.7,0.7-0.6l2.9,1.2
		c0.3,0.2,0.4,0.6,0.1,0.9l-0.6,0.6c-0.3,0.3-0.8,0.3-1.2,0.1l-1.2-0.5c-0.4-0.1-0.7-0.5-0.7-0.9V220.8z M497,229.6l-1-1
		c0.3-0.3,0.5-0.8,0.5-1.3h1.4C497.8,228.2,497.5,229,497,229.6z M496.5,226.9c0-0.5-0.2-0.9-0.5-1.3l1-1c0.5,0.6,0.9,1.4,0.9,2.2
		H496.5z M496.7,224.4l-1,1c-0.3-0.3-0.8-0.5-1.3-0.5v-1.4C495.3,223.5,496.1,223.8,496.7,224.4z M490.6,227.3h1.4
		c0,0.5,0.2,0.9,0.5,1.3l-1,1C491,229,490.6,228.2,490.6,227.3z M491.5,224.7l1,1c-0.3,0.3-0.5,0.8-0.5,1.3h-1.4
		C490.6,226,491,225.3,491.5,224.7z M494,224.8c-0.5,0-0.9,0.2-1.3,0.5l-1-1c0.6-0.5,1.4-0.9,2.2-0.9V224.8z M490.1,221.5l2.9-1.2
		c0.4-0.1,0.7,0.2,0.7,0.6v0.9c0,0.4-0.3,0.8-0.7,0.9l-1.2,0.5c-0.3,0.2-0.9,0.2-1.2-0.1l-0.6-0.6
		C489.7,222.1,489.8,221.7,490.1,221.5z M487.3,226.1l1.1-2.9c0.2-0.4,0.6-0.4,0.9-0.1l0.7,0.7c0.3,0.3,0.4,0.8,0.2,1.2l-0.4,1.2
		c-0.1,0.4-0.5,0.7-0.9,0.7h-0.9C487.5,226.8,487.2,226.5,487.3,226.1z M489.5,231.3c-0.3,0.3-0.7,0.2-0.9-0.1l-1.2-2.7
		c-0.1-0.4,0.1-0.7,0.6-0.7h0.9c0.4,0,0.8,0.3,1,0.7l0.5,1c0.2,0.3,0.2,0.9-0.1,1.2L489.5,231.3z M493.8,233.4
		c0,0.4-0.3,0.7-0.7,0.6l-2.7-1.1c-0.3-0.2-0.4-0.6-0.1-0.9l0.7-0.7c0.3-0.3,0.8-0.4,1.2-0.2l1,0.4c0.4,0.1,0.7,0.5,0.7,0.9V233.4z
		 M491.8,229.8l1-1c0.3,0.3,0.8,0.5,1.3,0.5v1.4C493.2,230.7,492.4,230.4,491.8,229.8z M494.4,229.4c0.5,0,0.9-0.2,1.3-0.5l1,1
		c-0.6,0.5-1.4,0.9-2.2,0.9V229.4z M498.1,232.9l-2.7,1.1c-0.4,0.1-0.7-0.2-0.7-0.6v-0.9c0-0.4,0.3-0.8,0.7-0.9l1-0.4
		c0.4-0.2,0.9-0.1,1.2,0.2l0.7,0.7C498.5,232.3,498.5,232.7,498.1,232.9z M501.1,228.5l-1.2,2.7c-0.2,0.3-0.6,0.4-0.9,0.1l-0.6-0.6
		c-0.3-0.3-0.3-0.8-0.1-1.2l0.5-1c0.1-0.4,0.5-0.7,1-0.7h0.9C500.9,227.8,501.2,228.1,501.1,228.5z M500.5,226.8h-0.9
		c-0.4,0-0.8-0.3-0.9-0.7l-0.4-1.2c-0.2-0.4-0.1-0.9,0.2-1.2l0.7-0.7c0.3-0.3,0.7-0.2,0.9,0.1l1.1,2.9
		C501.2,226.5,501,226.8,500.5,226.8z"/>
</g>
</svg>
